<svg xmlns="http://www.w3.org/2000/svg" width="226.209" height="229.496" viewBox="0 0 59.851 60.721"><path d="M28.109-.012c-.167 0-.32.024-.32.25 0 .388-.006.39-1.13.38-1.098-.009-1.071 0-1.071-.357 0-.248-.001-.249-.125-.249-.144 0 .102-.007-.136-.012-.252 0-.253 0-.254.243-.002.393.05.375-1.162.385-1.73.015-1.813-.008-1.74-.46C22.198 0 22.198 0 22.003 0s-.196 0-.167.25c.019.158.013.258-.015.276-.062.038-2.528.031-2.736-.008-.17-.032-.17-.032-.182-.275C18.891 0 18.89 0 18.575 0s-.315 0-.316.223c0 .122-.016.246-.034.275-.035.055-2.926.107-3.011.054-.063-.039-.13-.249-.13-.406 0-.139-.007-.146-.147-.146-.149 0-.148 0-.148.25 0 .148-.022.265-.053.29-.08.062-2.522.07-2.598.007C12.1.515 12.08.41 12.08.249c0-.248 0-.249-.127-.249s-.127 0-.127.25c0 .315-.027.385-.148.385-.122 0-.148-.07-.148-.384 0-.25 0-.251-.19-.251-.191 0-.191 0-.191.25 0 .356.062.34-1.379.341-1.92.002-2.013-.018-1.871-.4L7.969 0h-3.42l-.026.222c-.014.122-.032.476-.04.786-.068.457-.043.993-.034 1.378.01.456-.02 1.355-.075 1.355-.106-.841-.1-1.868-.039-2.624a3.65 3.65 0 01-.01-.662C4.353 0 4.353 0 4.205 0c-.158 0-.16.024-.112 2.6.003.17-.013.298-.038.307-.056.019-.146-.407-.147-.687A50.153 50.153 0 013.715.37L3.687 0H2.202c.027.534.045 1.07.103 1.6.053.468.021.644-.117.644-.295.54-.016 1.774-.04 2.504-.013.02-.057.036-.099.036-.07 0-.075-.038-.056-.477.012-.573-.072-1.169-.015-1.72.019-.231.084-.28-.12-.233-.19.012-.369.054-.564.081-.054.018-.086 1.143-.056 1.978.007.205-.004.37-.025.37-.097 0-.14-.119-.14-.387 0-.36-.029-.378-.488-.33-.186.02-.39.037-.454.038-.117.002-.117.002-.117.507 0 .546.039.626.25.513.149-.035.294-.062.435-.1.044-.043.33-.051 1.326-.04 1.75.018 1.894.028 2.26.156.172.06.36.109.42.109.139 0 .39.09.39.14 0 .02-.072.028-.16.014l-.412-.064c-1.369-.212-2.545-.265-3.783-.17-.73.056-.767.075-.631.328.096.18.095.18.304.154.612-.078 3.152-.101 3.39-.031.093.027.322.078.508.112.753.141.82.163 1.522.512.36.18.448.312.314.473-.099.119-.51.273-.692.26-.17-.013-.17-.013-.17-.255 0-.309-.097-.415-.509-.558-.992-.346-4.872-.455-4.273-.12.036.02.197.165.36.323.425.464.837.609 1.04 1.603.012.225.05.349-.068.552a.37.37 0 01-.089.204c-.076.087-.084.09-.058.016a1.78 1.78 0 00.05-.181c.096-.351-.021-.562-.052-.825-.13-.555-.67-1.108-1.042-1.384C.429 6.2.099 5.817.099 5.717c0-.021-.02-.052-.043-.066C-.04 7.333.037 9.06.014 10.793l.01 15.4L.02 41.161c.852-.02 1.724-.012 3.14-.021.726-.004 1.319 0 1.327.041.27.223.236.222.371.349.22.267.146.227 1.19.223 1.016.007 1.015.007 1.029.124.015.136.525.118-3.971.137-1.618.007-3.034.023-3.075.025.034.738-.005 1.368-.004 1.391-.01.105.536.146 1.587.12 1.544-.048 3.013.011 4.612-.001.487-.042.445.06.468.127.013.041-.253.054-1.225.059-1.688.025-3.245-.018-4.854-.015-.669.003-.6.022-.6.12s.012.107.117.08c.064-.016.835-.03 1.714-.03 2.945-.023 5.89.04 8.837-.011 1.178-.023 1.131-.034 1.166.274.037.327-.028.404-.327.39-.465-.02-10.823-.037-11.158-.019-.321.02-.349.029-.349.111 0 .09 0 .09 2.36.083 1.375.038 2.943.018 4.258.033.367.003.711.008 1.068-.004h1.442c.438 0 .58.05.28.1-.594.016-1.126.027-1.725.02-.678.018-1.356.032-1.823.035-1.06.005-1.04-.056-1.068.579-.024.558.045.522-.96.503-.773-.015-3.142-.026-3.589-.017-.223.004-.243.012-.243.101 0 .095.008.096.498.096 1.304.016 2.432.067 3.721.08.26.002.489.02.508.039.041.998-.045 1.754.01 2.88.677.856 1.71 1.67 2.533 2.421-.017.019-1.66.035-3.651.037l-3.619.003v.28c.204-.012.322.015.58-.005.045 0 .055.023.034.074a3.408 3.408 0 01-.305.657c-.232.325-.314.528-.3.743.013.198.012.199.176-.14.296-.424.49-.927.796-1.316.227-.117 1.77-.04 1.77.089 0 .052-.028.119-.064.148-1.004 1.476-1.794 2.89-2.687 4.246l.001 4.262c3.1-.005 6.44-.027 9.207 0 .245 0 .445-.006.445-.011 0-.006-.022-.078-.047-.16-.1-.655-.109-1.283-.173-1.967-.154-1.636.008-3.358.372-3.938.154-.604.368-1.057.505-1.63.265-.725.714-1.746 1.057-2.54.124-.316.304-.592.387-.592.09 0 .07.072-.107.397-.09.166-.197.406-.238.534-.04.128-.18.5-.307.826-.129.326-.25.654-.27.73-.105.361-.183.75-.247 1.069-.138.586-.267 1.237-.292 1.778-.028.79-.441 1.252-.555 1.979-.054.356-.047.52.06 1.408.085.694.152 1.498.151 1.83 0 .258.008.286.084.286 0 0 .199-.013.365 0 .103 0 .105-.008.098-.285-.026-.969.251-2.057.301-2.784.024-.349.071-.772.106-.94.397-1.785 1.28-3.704 1.666-5.114.233-.49.268-.595.306-.93.07-.614.087-.691.17-.78.157-.169.162-.154.25.716.112.665-.174 1.236-.215 1.798-.063 1.157-.413 2.258-.507 3.218-.1.726-.276 1.521-.24 2.053.034.281-.04 2.176-.23 1.52-.103-.287-.107-.364-.08-1.644-.113-.713-.016-1.216.153-1.75a.404.404 0 00-.17-.102c-.132-.025-.171.156-.278.355-.306.774-.038 1.437-.023 2.186.154 1.384-.524 1.757-.35 2.485.417.015.618.005 1.247-.004.189.004.22-.222.122-.883a38.594 38.594 0 01.126-3.327c.156-.932.308-1.845.528-2.688.181-.578.321-3.246.19-3.64-.079-.239-.064-.34.053-.34.08 0 .242.702.278 1.207.262.7.154 1.25.156 1.665.007.707.158.833.212.833.18 0 .141-1.41-.064-2.35-.167-.762-.182-.995-.08-1.21.137-.289.298-.13.35.346.166.848.374 1.788.336 2.526.44 1.919.237 3.018.747 4.933.243.398.178.686.418 1.256.004.67-.046.989-.277 1.558-.06.32.871.217 1.006-.163-.133-.837-.112-1.65.082-2.373-.13-.84.24-2.071-.034-2.695-.05-.162-.316-.28-.386-.28-.101 0-.027.368.12.59.195.41-.23.844-.165 1.333.091.554.086.784-.02.784-.662-.656-.475-1.855-.627-2.604-.083-.26-.095-4.325-.015-4.816.187.001.197.11.234.271.08.32.243.636.345.917.104.409.266.427.174.06.006-.607-.06-.951-.282-1.323-.077-.286-.056-.315.242-.329.248.054.205.204.237.432-.022.392-.015.468.064.652.106.313.093.69.193.975.126.325.226.627.476 1.47.052.175.2.256.244.265.11.022.067-.225-.141-.818-.264-.602-.463-1.47-.453-2.076.01-.607.097-.895.67-.454.686.46.878 1.12 1.01 1.834.097.34.154.695.159.965.063.987.24 2.025.633 2.934.08.121.12.366.177 1.059-.019.528.226.926.31 1.362.305.488.4.584.71.91.151.369.324.681.466 1.04.05.201.05.202.252.202.232 0 .237-.04.097-.65a1.736 1.736 0 01-.043-.518c-.01-.384-.135-.714-.164-1.08-.188-.866-1.034-1.728-1.023-2.515.006-.366.015-.41.084-.41.043 0 .094.044.114.096.077.204.127.4.155.603.132.488.433.965.566 1.409.08.151.181.505.213.75.101.695.483 1.43.46 1.926l-.018.382h.437c.437 0 .437 0 .41-.107-.002-.25-.245-.519-.21-.738.037-.543-.192-1.113-.377-1.488-.122-.417-.377-.753-.535-1.105-.128-.208-.288-.363-.378-.567 0-.078.014-.142.032-.142.553.699 1.14 1.387 1.476 2.196.116.323.19.672.317.965.121.299.25.555.363.86.025.126.025.126.544.126 2 0 6.16.04 7.535.005 2.067-.017 4.024.045 5.947-.052 1.17-.018 1.631.053 2.605 0a4 4 0 01.402-.078c.462-.062.574-.305.54-1.172-.01-.288-.003-.523.016-.523.068 0 .097.243.095.83-.002.709-.048.818-.39.923-.187.058-.15.061.67.061.804 0 .855-.004.701-.06-.371-.137-.451-.404-.246-.82.151-.31.18-.292.18.107 0 .493.05.539.655.586.504.04.614.12.209.154-.161.013.303.028 1.03.032 1.323.007 1.323.007 1.323-.1 0-.057.019-.104.042-.104.022 0 .053.047.068.105.044.175.717.166.68-.01-.09-.41-.123-1-.077-1.326.07-.501-.01-.559-.287-.207-.187.236-.246.402-.281.781-.057.621-.157.58-.168-.07-.008-.443.106-.75.304-.827.063-.024.08-.122.024-.156-.019-.012-.215-.003-.434.02-.92.092-2.602.117-2.748.04-.282-.152.053-.444.51-.445.2-.001.35-.02.368-.048.042-.065.629-.12.664-.061.051.081.268.05.338-.05.166-.237-.084-.88-.343-.88a.177.177 0 01-.141-.084c-.06-.11-.196-.108-.256.003-.04.074-.072.083-.213.06-.152-.026-.166-.02-.166.064-.212.126-.34.088-.34-.442-.025-.024-.07-.012-.118.032-.087.078-.243.095-.283.029-.102-.165-.45 0-.63.299-.215.36-.492.454-.492.168 0-.368-.673.075-.936.616-.123.252-.145.277-.156.18-.052-.44.92-1.272 1.672-1.433.344-.073.547-.165.606-.276.069-.129.158-.136.176-.012.018.12.092.14.183.05.063-.063.071-.131.053-.447-.012-.208-.005-.373.017-.373.051 0 .12.19.12.335 0 .414.268.56.705.382.125-.051.142-.046.303.09.185.159.6.378 1.13.597.664.275.934.64 1.016 1.369.013.116.039.3.057.407.019.107.02.515.003.906s-.021.737-.01.768c.043.109 2.112.08 2.323-.033.364.025.665.058 1.218.087.61-.002.824-.015.749-.045-.336-.133-.433-.365-.322-.771.211-.77.13-.936-.457-.936h-.407v-.412c0-.594-.075-1.056-.175-1.082-.1-.026-.106-.15-.006-.13.097.018.266.275.266.402 0 .273.212.51.247.275.016-.113.177-.13.177-.018 0 .084.243.21.293.153.045-.052.165-.398.18-.52.334-.107.43 0 .585.271 0 .168.095.204.17.064.248-.299.444-.13.592.005 0 .222.147.055.192-.218.053-.324.081-.38.192-.38.083 0 .111.061.046.102-.064.04-.092 1.215-.045 1.866.071.968.119 1.054.708 1.265.379.136 1.547.138 1.801.148 1.646.062 3.599-.022 5.324-.042.16-3.92-.054-7.947.02-11.814-1.288-2.176-2.911-4.445-4.21-6.482-.24-.324-.472-.776-.472-.918 0-.136.257-.486.467-.635.124-.088.131-.109.106-.27a3.007 3.007 0 01-.024-.418c.007-.362-.075-.427-.615-.493-.62-.049-1.27-.249-1.839-.363-.683-.12-.666-.11-.7-.421-.015-.148-.018-1.038-.003-1.978-.003-5.515 0-24.565 0-31.043v-5.8L52.302 0 52.136 0v29.308c0 2.87.006 6.072-.02 8.475l-.011 1.185-.17-.008c-1.247-.21-2.52-.58-3.622-.818-.143 0-.615-.185-.687-.27a6.339 6.339 0 01-.274-.386c-.446-.683-.883-1.218-1.28-1.846-.458-1.026-.986-1.89-1.55-2.985-.352-.85-.152-1.014-.204-2.074.084-10.052-.045-18.812.031-27.817C44.372.024 44.255 0 44.114 0c-.142 0-.318-.14-.329 1.373 0 3.167.013 6.556 0 9.357-.068 5.25-.01 11.803-.006 16.279.002 2.014-.06 3.773-.045 3.915.032.31.082.342-.193.281-.978-.213-1.385-.239-1.574-.098-.18.134-.152.402.065.643.575.95 1.137 2.033 1.595 2.866.19.348.122.325.158 1.1 0 .521 0 .925-.027 1.474l-.201-.004c-.424-.038-.612.082-1.058.67-.11.145-.48.454-.917.765-.275.197-.463.394-.463.486 0 .097.034.137.296.35.1.08.268.233.376.34.187.187.208.196.497.22.481.039.723.165.992.517.124.163.318.408.431.545.235.284.25.402.053.46-.502.229-1.083.297-1.587.41-.883.15-1.615.274-2.434.444-.184.03-.45.083-.785.156-.445.098-.835-.17-1.119-.766a4.007 4.007 0 01-.38-.952 5.627 5.627 0 00-.115-.466c-.097-.28-.093-.307.045-.379a.651.651 0 00.236-.275 3.97 3.97 0 01.206-.356c.115-.17.18-.484.114-.55-.063-.064-.053-.248.02-.396.11-.22.128-.61.04-.855-.073-.203-.076-.223-.006-.365.12-.253.056-.514-.191-.77-.131-.135-.13-.135-.076-.393.106-.5-.183-1.059-.547-1.059-.1 0-.143-.028-.193-.125-.135-.26-.334-.277-.584-.05-.382.349-.515.353-.58.017a3.981 3.981 0 00-.083-.35c-.073-.22-.128-.459-.21-.91-.163-.902-.183-1.019-.217-1.3-.23-1.265-.194-2.517-.181-3.568.052-3.767.155-3.445.208-4.403.033-2.246.93-3.814 1.755-5.375.34-.607.707-1.257.97-1.775.281-.557.546-1.062.588-1.122.315-.617.571-1.13.83-1.74.18-.413.351-.934.59-1.8.362-1.305.772-2.565 1.095-3.83.109-.519.222-1.037.306-1.566.015-.128.074-.471.13-.762.193-1.168.499-2.308.616-3.493.104-.814.205-1.696.354-2.42.108-.416.13-.395-.402-.395-.344 0-.465.014-.466.053-.002.128-.09.791-.13.984-.191.99-.283 2.02-.504 2.984-.117.561-.2 1.106-.287 1.652a52.853 52.853 0 01-.892 3.577 69.805 69.805 0 01-1.226 4.106 14.78 14.78 0 01-.543 1.408c-.427 1.048-1.09 2.3-1.547 2.98-.114.17-.21.373-.296.525-.897 1.451-1.598 3.031-1.858 4.45-.21 1.157-.213 1.19-.183 2.586.028 1.323.075 1.639-.036 1.639-.097 0-.183-.364-.351-.687a5.946 5.946 0 00-.362-.603 14.653 14.653 0 01-.295-.423c-.163-.246-.748-.805-.841-.805-.04 0-.138-.068-.218-.152a1.45 1.45 0 00-.315-.239 2.705 2.705 0 01-.297-.18 1.41 1.41 0 00-.275-.149 1.705 1.705 0 01-.315-.176c-.092-.066-.198-.12-.236-.12-.108 0-.476-.14-.778-.26-.01-.31.022-.814 0-1.922-.002-3.003-.022-4.945 0-7.89 0-1.881.135-7.312 0-11.251.003-1.025 0-1.803 0-2.092-.167.007-.117.007-.195.007-.156 0-.15-.015-.115.462.006.088-.004.095-.002.163a8.963 8.963 0 00-.598-.012c-.63 0-.671-.02-.71-.37-.03-.257-.03-.257-.197-.257zM.013 0v3.944l.16-.023c.087-.013.3-.035.476-.05.505-.04.462.027.459-.71-.003-.712-.023-.79-.204-.79-.172 0-.175-.01-.193-.753C.694.897.714.678.796.678c.057 0 .134.684.086.762-.04.064.026.754.08.823.437.06.78.026 1.158-.112.102-.714-.008-1.236-.052-1.95v-.2zm5.563.05c.284.014.322.08.322.282 0 .18-.013.211-.095.233-.099.027-.595.025-.912-.004-.182-.017-.182-.017-.17-.258l.013-.24.47-.012c.156-.004.278-.006.372-.001zM1.584.854c.128.019.292.264.292.436a.42.42 0 01-.062.216c-.057.076-.062.067-.063-.122-.003-.49-.402-.535-.457-.05-.023.202-.052.23-.137.127-.123-.148.22-.636.427-.607zm5.075.12c.235 0 .18.28-.119.604-.158.17-.177.149-.177-.2 0-.35.04-.404.296-.404zM5.326.976c.392 0 .226.27-.223.366-.388.082-.397.08-.382-.1.014-.173.224-.265.605-.266zm1.965.05c.06-.02.04 2.495-.032 3.822-.025.473-.034.509-.116.52-.163.024-.198-.082-.166-.495.007-.817-.239-1.616-.407-2.396-.1-.405-.112-.37.211-.678.245-.232.314-.327.375-.52.042-.129.102-.243.135-.254zm-1.334.216c.052.015.074.097.103.257.074.403.065.448-.163.746-.292.383-.357.594-.298.974.076.495-.031.86-.295.996-.144.074-.197.073-.337-.005a.481.481 0 00-.18-.06c-.067 0-.075-.056-.078-.56a46.976 46.976 0 00-.02-1.076c-.021-.612-.022-.611.447-.82.175-.077.417-.214.538-.303.15-.11.232-.163.283-.149zm8.683.041c.172.012.156.207.13 1.088-.047 1.004-.02 2.012.021 3.013-.26.043-1.203.045-1.324.05-.845.031-1.145.03-1.19-.007-.057-.048-.061-.116-.175-3.225.011-.52.035-.65.037-.845.779 0 1.468.026 2.261-.043.105-.018.183-.034.24-.03zm8.434.056c.467.006.93.073 1.33.07.641-.008.61-.052.563.795-.036.647-.01.614-.549.674-.634.066-1.299.224-1.891.32-.283.03-.283.03-.326-.133-.039-.146 0-1.603.044-1.643a3.19 3.19 0 01.829-.083zm-11.364.013c.06-.001.12-.001.164.005.025 1.201.074 2.67.026 3.959-.057.056-.416.063-.437.01-.03-.078.073-3.764.076-3.97.049 0 .11-.002.171-.004zm-.583.005c-.079.934-.004 2.964-.067 4.002-1.091.04-2.156.082-3.295-.059-.048-.09.015-3.855.065-3.903.05-.048.617.036 1.725.017.549 0 1.018-.057 1.572-.057zm4.017 0h3.072c-.028 1.343.092 2.728-.055 4.047-1.15-.015-1.913.027-3.019-.019-.105-.056-.102-3.81.002-4.028zm3.773 0h2.85c.083.1.042 1.746-.046 1.917-.056.109-.306.208-.604.241-.479.052-1.21.222-1.316.305-.183.144-.14.388.183 1.038.107.215.18.405.163.423-.326.065-.609.07-.957.115-.264.07-.257.124-.28-2.143.003-1.59-.09-1.785.007-1.896zm10.503.017c.02-.009.057.007.05.27-.009.392-.008.392-.16.392-.067.019-.26.044-.403.078-.91.213-.894.24-.842-.54l-.003-.129c.424-.024.874-.05 1.274-.065l.074.002s.004-.006.01-.008zm-2.744.01c1.055 0 1.005-.02 1.038.444.03.428-.018.502-.32.502-.35.02-.696.114-1.027.172-.828.128-.76.17-.802-.48-.043-.668-.097-.637 1.111-.638zM6.23 2.414c.094 0 .103.05.176.932.024.291.081.77.127 1.063.047.294.085.632.085.751 0 .218 0 .218-.143.218-.209 0-.26-.088-.26-.453-.002-.351-.03-.392-.277-.393-.2 0-.252.062-.252.304 0 .248-.16.301-.263.087-.071-.15-.207-.168-.397-.05-.161.1-.642.093-.767-.01-.109-.09-.066-.329.073-.408.081-.046.126-.106.126-.167 0-.113.051-.12.193-.027.135.089.132.135-.012.151-.238.028-.116.374.131.373.33 0 .909-.335 1.007-.583.155-.277.163-.597.163-.83 0-.558.121-.957.29-.957zm23.398.44l.025.349c.014.192.037 1.245.05 2.34.014 1.094-.01 2.164.008 2.385-.026.512.03 1.222-.016 1.294-.283-.555-.266-.468-.402-.82-.735-1.599-1.32-3.275-1.937-4.832-.14-.291-.177-.275 1.084-.484.39-.095.441-.176.822-.216zm-3.536.573c.216.019.344.135.447.368.707 1.807 1.584 3.651 2.156 5.201.164.43.164.43.103.684-.062.259-.098.288-.4.33-1.558.238-3.019.417-4.273.597-.526.078-.957.08-1.058.006-.071-.052-.334-.69-.466-1.13a103.93 103.93 0 01-1.7-4.805c-.111-.315-.086-.328.808-.425 1.344-.254 2.587-.476 3.886-.758.207-.055.368-.078.497-.067zm-23.396.427c.349.03.739.062 1.054.109.24.033.285.05.285.101 0 .052-.092.05-.307-.006-.277-.091-.595-.055-.836-.055-.496 0-.55-.008-.55-.075 0-.065.045-.073.354-.073zm3.27 1.14c.027 0 .052.084.056.225.001.064-.015.117-.037.117-.072 0-.096-.088-.065-.246.013-.066.03-.096.046-.096zm-.47.485c.029-.004.088.018.167.066.082.052.15.101.15.111 0 .01-.014.015-.031.012-.177-.032-.224-.05-.268-.103-.044-.053-.046-.083-.018-.086zm6.155.237c.276 0 .306.178.323 1.906.008.716.005 1.225-.01 1.575-.014.372-.042.565-.085.608-.081.081-.368.077-.437-.005-.058-.556-.03-.96-.024-1.429.06-2.647.06-2.655.233-2.655zm-5.225.01c.024 0 .057.008.1.017.181.036.191.39.025.867-.456 1.31-.527 2.344-.211 3.095a.856.856 0 01.066.223c0 .036-.033.06-.074.057l-.263-.024c-.25-.041-.385-.187-.59-.326-.162-.084-.169-.14-.18-1.4l-.007-1.058.192-.028c.265-.038.534-.164.715-.335.152-.145.151-.145.157-.606.004-.396 0-.48.07-.482zm7.335.007c.276-.005.548.005.815.043.148.004.148.003.143 1.57-.006 1.824-.037 2.388-.134 2.466-.057.044-1.115.063-1.759.048-.258-.006-.46-.016-.488-.034-.025-.016-.04-.128-.051-.381-.037-1.046-.018-1.993-.056-3.126-.01-.285-.005-.52.01-.522.016-.002.323-.01.684-.018.282-.02.56-.04.836-.046zm-3.419.025c.68 0 .688.022.723.113.045.118.036 1.212-.027 3.174l-.024.767c-.678.071-1.29.034-1.768.013l-.524-.023c-.17-.698-.6-1.333-.858-1.913-.15-.317-.15-.318-.15-1.166 0-.565.015-.865.046-.896.993-.078 1.565-.063 2.582-.07zm6.235.03c.49-.004.99.001 1.544.028.12 1.14.003 2.421.033 3.335.03.89.003.711-.386.776-.947.027-1.796.006-2.733-.05.036-1.458-.074-2.68.053-4.06.516-.012.998-.025 1.489-.03zm3.022.006c.678-.015.818.022.818.215.44 1.195.905 2.476 1.296 3.484.075.145.076.418.004.517h-.001c-.051.07-.147.077-1.135.082-1.595.008-1.603.006-1.666-.544-.057-.49-.047-3.6.011-3.691.022-.034.241-.054.673-.063zM7.21 5.822c.024.014.043.082.043.15 0 .07-.02.125-.043.125-.023 0-.042-.068-.042-.15 0-.09.017-.14.042-.125zm-.277.797a.038.038 0 01.023.012c.023.023.094.164.157.315.116.273.116.273.126 1.66l.011 1.386c-.155.028-.308-.032-.428-.074-.457-.538-.511-2.05-.101-2.841a.63.63 0 00.067-.226c.002-.114.087-.24.145-.232zM.65 7.772c.213-.014.464.045.575.15.202.19.155.85-.07.97-.27.145-.881-.008-1.012-.253-.141-.263.031-.72.312-.828a.674.674 0 01.195-.039zm2.792.074c.086-.001.179.015.276.052.457.175.446.87-.019 1.12-.117.062-.294.047-.492-.04-.661-.295-.368-1.127.235-1.132zm1.584.238c.096-.004.111.137.111.573 0 .523-.001.53-.097.53-.447 0-.558-.832-.14-1.056a.332.332 0 01.126-.047zm2.782.553c.057 0 .276.348.334.53.029.092.087.269.128.391.074.223.075.223-.122.22-.345-.005-.37-.03-.401-.41-.03-.35.002-.73.06-.73zm-5.616.834c1.07.012 3.114.211 3.114.357 0 .047-.265.041-.487-.011-.547-.128-.708-.142-2.199-.181-1.09-.03-1.109-.03-1.062-.106.029-.047.277-.063.634-.06zm.447.628c.702-.03 1.279.07 1.975.124.1-.1.523.102.523.238 0 .039-.35.057-.386.02-.037-.037-1.123-.145-1.705-.17-.555-.08-1.142.004-1.666-.052-.015-.09.13-.137.215-.168.347-.03.729.013 1.044.008zm12.595.292c.08 0 .183.011.316.02.913.15 1.683.008 2.573.096.055.262.035.559 0 .837-.659-.01-1.189.05-1.74.054-.718.007-1.32.001-1.338-.01-.018-.011-.042-.213-.053-.449-.018-.472.004-.552.242-.548zm-8.864.024c.27 0 .302.025.437.349.08.19.014.206-.315.073a8.97 8.97 0 00-.476-.169c-.46-.149-.315-.253.354-.253zm7.77.021c.547.003.5.091.486.51-.005.126-.006.216-.013.287-.022.228-.104.206-.56.18-.573-.031-.829.033-1.48.374-.4.211-.38.237-.345-.437.05-.972-.084-.867 1.144-.898.254-.006.503-.012.768-.016zm-2.45.03c.242.013.241.013.233.224-.033.892-.069 1.317-.112 1.355-.076.131-.197.207-.3.275-.1 0-.1 0-.103-.7a9.206 9.206 0 00-.029-.842c-.047-.249.031-.327.312-.312zm-3.266.006c.187.02.198.149.218.63.023.533.005.545-.506.335-.406-.167-.417-.181-.417-.512 0-.38.031-.41.453-.445.108-.009.19-.015.252-.008zm1.608.026c.354.003.697.02.988.084.027.05.044.525.044 1.25-.054.706.112 1.525.12 2.105.011.779.046.722-.545.904-.638.197-.633.197-.636-.093-.024-2.395-.016-2.328-.298-2.472-.562-.287-.613-.342-.666-.725a7.635 7.635 0 01-.05-1.051c.328.005.69-.006 1.043-.002zm9.167.014c.063-.006.143-.002.246.008.175.017.84.036 1.477.043 1.284.014 1.2-.007 1.27.32.15.512.439 1.02.59 1.469-.018.091-.325.126-.406.046-.034-.034-.052-.187-.052-.441 0-.26-.018-.402-.053-.43-.066-.052-1.043-.103-2.247-.117-1.106-.012-.989.02-.973-.437.01-.322-.04-.445.148-.461zm9.496.129c.22-.002.313.031.34.1.17.437.517 1.576.507 1.663-.014.114-.402.132-4.392.095-1.456-.013-1.369.02-1.627-.603-.196-.471-.28-.418 1.002-.636 1.485-.254 2.918-.367 4.17-.62zm-10.824.964c.214.008.396.03.396.091-.071.52.01.874-.044 1.452 0 .07-1.663.217-1.733.147.02-.614-.03-.97 0-1.492.013-.14.014-.14.458-.174.31-.027.639-.025.923-.024zm-4.455.032c.107-.008.145.071.166.257-.015.563-.03 1.102-.063 1.718 0 .437-.008.486-.075.486-.066 0-.076-.048-.082-.412.046-.516.023-1.181.03-1.594 0-.215-.087-.264-.284-.161a3.34 3.34 0 01-.372.157c-.398.208-.787.39-1.169.63-.002.002-.01.26-.019.575-.008.315-.027.71-.042.879-.02.224-.042.307-.086.307-.077 0-.083-.757-.01-1.381.065-.572-.055-.466 1.284-1.13.14-.07.34-.17.444-.225a.843.843 0 01.278-.106zm7.417.005c.638 0 .656.019.575.604-.014.105.077.827-.03.974-.108.148-.447-.013-.826-.084-.339.159-.303-.152-.303-.75 0-.774-.023-.744.584-.744zm-.89.008c.098.311.122.752.102 1.051-.033.418.012.5-.465.474-.175-.034-.477-.005-.652-.022-.317-.03-.35-.262-.336-.537.02-.35-.01-.557.01-.795 0-.149-.028-.173.408-.167.348.014.719.006.932-.004zm-4.938.01c.4-.003.798 0 1.202.003l.023.678c.008.273.01.555.005.836-.022.19-.067.2-.152.036-.083-.16-.143-.178-.435-.13-.584.096-.686.067-.677-.188.01-.286-.073-.391-.34-.431-.236-.035-.477.062-.477.193 0 .363-.348-.28-.355-.654l-.005-.298c.41-.028.812-.04 1.211-.044zm6.989.034c.076 0 .076.047.076.236.009.49.012 1.003.015 1.426-.017.046-.085.065-.232.065-.207 0-.207 0-.204-.159.012-.558-.01-.896-.002-1.235 0-.284-.004-.279.243-.32.045-.007.079-.012.104-.013zm-8.892.67c.073-.001.092 1.82.02 1.89a.837.837 0 01-.186.085c-.087.03-.287.068-.444.083l-.285.027c-.001-.46-.011-.942.042-1.388.023-.014.042-.079.042-.143 0-.12.634-.554.811-.555zm1.512.302c.097-.011.154.07.167.24.013.176.013.176-.148.175-.296 0-.374-.224-.13-.372a.287.287 0 01.11-.043zm-.722.713c.234.134.33.101.629.088.22.072.276.087.515.045.064-.01.194.022.209.068.01.032-.023.052-.086.052-.394.116-.65.19-.97.318a1.286 1.286 0 01-.215.043c-.201.03-.201.03-.201-.292 0-.322 0-.322.119-.322zm4.778.286c.208-.01.492.026.683.023.891.007 1.506.238 1.583.374-.045.018-1.217-.036-1.377-.063-.764-.131-.95.002-1.239.692-.153.172-.332.455-.447.423-.07 0-.035-.142.07-.28.1-.179.18-.37.284-.533.251-.483.372-.462-.062-.44-.45.207-.894.213-1.282.477-.03.08-.107.087-.178.016-.09-.09-.091-.266.042-.266.407-.129.884-.253 1.245-.391.244-.02.488-.035.678-.032zm-2.23.01c.128 0-.82.934-1.077 1.06-.546.492-.89.988-1.367 1.618-.247.359-.55.697-.812 1.01l-.43.512c-.106.125-.285.14-.285.047 0-.079.26-.422.552-.726.134-.14.286-.336.336-.438.966-1.182 1.11-1.306 1.814-2.13.065 0 .441-.271.824-.657.19-.192.417-.296.445-.296zm-1.31.254c.125 0 .09.136-.045.174-.287.062-.251.277-.467.463-.149.162-.31.282-.444.463-.09.13-.212.318-.27.416-.11.184-.597.513-.597.467 0-.041.123-.337.236-.568.351-.508.791-.854 1.185-1.25.038-.062.29-.165.401-.165zm7.8.076c1.107.001 2.13.142 3.142.278 1.023.108 2.955.257 2.903.535-.051.278-.71.067-1.55-.07-1.635-.203-3.395-.453-4.858-.625-.025-.085.143-.115.363-.118zm-8.903.354c.025.008-.127.19-.337.405-.201.18-.282.45-.412.653-.143.17-.326.668-.526.918-.119.262-.19.556-.31.794-.11.199-.136.445-.253.63-.197.306-.409.478-.448.874-.127.274-.23.508-.379.857-.24.47-.375.885-.49 1.366-.145.342-.198.472-.245.826-.028.84-.058 1.52-.192 2.287-.068.575-.259 1.114-.422 1.543-.02.304-.09.47-.217.341.015-.42.164-.855.126-1.214.077-.594.182-1.124.208-1.671.024-.343.082-.686.038-1.016-.048-.41-.094-.82-.109-1.208.029-.239.056-.491.063-.667-.011-.938.635-1.726.846-2.492.12-.397.303-.749.505-1.088a6.56 6.56 0 00.342-.517c.312-.342.545-.546.818-.796.127-.113.312-.282.412-.376.1-.094.194-.158.208-.143.042.041-.13.251-.256.313-.104.123-.228.252-.32.361-.269.286-.52.657-.851 1.258-.346.495-.533 1.118-.737 1.613-.056.125-.21.484-.342.798-.239.383-.251.803-.27 1.219-.024.29-.065.456-.02.675.31-.414.505-1.259.735-1.788.122-.28.252-.593.29-.698.225-.522.531-.992.766-1.472l.432-.885c.116-.236.25-.465.297-.507.142-.193.247-.4.382-.594.079-.089.173-.21.21-.269.079-.127.392-.352.458-.33zm2.889.273c.027-.014.36.07.361.298-.015.499.128 1.128.128 1.35.024.658.078 1.3.128 1.903.094.544.139.908-.035 1.365 0 .03-.028.053-.062.053-.231-.26-.364-.598-.349-.821a1.817 1.817 0 00-.04-.59c-.095-.804-.117-1.349-.165-2.134.035-.457-.061-.94-.002-1.386a.15.15 0 01.036-.038zm-4.023.017c.022.004.033.015.033.033 0 .062-.1.136-.186.136-.046 0-.143.056-.214.125l-.36.35c-.667.656-1.235 1.236-1.652 2.005-.284.507-.632.91-.639 1.473 0 .201-.084.798-.168 1.185-.074.979-.447 1.75-.718 2.668-.149.644-.296 1.245-.442 1.889-.131.477-.153.926-.185 1.319-.035.143-.172.266-.224.332-.088 0-.093-.23-.009-.45.061-.61.094-1.225.276-1.809.254-1.282.73-2.658 1.053-3.88.06-.277.168-1.114.146-1.136-.058-.057-.151.062-.239.307-.166.48-.149.54-.303 1.058-.142.54-.267 1.063-.31 1.486-.028.264-.296.434-.342.36.056-2.986 1.828-5.673 4.09-7.32.178-.095.329-.143.393-.13zm-2.031.283v.001c.03-.001.053.07.053.105-.35.19-.702.35-.956.592-.391.376-.748.855-.755 1.103-.005.189.082.148.8-.37.053-.038.154-.129.27-.238.39-.45.797-.801 1.234-1.138.033-.053.106-.056.106-.004 0 .047-.372.426-.646.66a4.442 4.442 0 01-.573.604l-.027.025a7.108 7.108 0 01-.468.416c-.811.737-.982 1.38-1.225 2.246-.312 1.174-.445 2.332-.727 3.499-.229 1.328-.342 1.512-.394 2.775.018.172-.037.41-.01.442.038.045.03.092-.03.206-.16.297-.25.17-.22-.31.033-.422.004-.439.044-.888.101-1.19.096-2.242.42-3.3.08-.236.182-.76.228-1.164.237-1.294.656-2.388.874-3.566.24-.58.42-.788.786-1.16.228-.22.616-.317 1.026-.474.105-.04.16-.06.19-.062zm5.548.256c.015-.009.03.01.035.064-.007.577.384 2 .315 3.34a48.596 48.596 0 00-.132 3.345c-.013 2.408.019 4.877-.037 7.108-.01.384-.02 1.265-.022 1.957-.001 1.231-.246 1.244-.329 1.244-.087 0-.105-2.777-.03-6.531-.05-2.124.037-4.417.07-6.462.035-.512-.015-.892-.013-1.391a2.331 2.331 0 00-.039-.703c0 .07-.03.162-.068.204-.04.044-.082.204-.103.391-.136.509-.3.995-.48 1.424-.082.362.013.539.016.836 0 .107-.018.137-.08.137-.101 0-.326-.201-.291-.456.036-.217 0-.454.05-.66.078-.19.158-.397.444-1.354.206-.691.432-.798.495-1.276.06-.34-.003-.736-.007-1.08 0-.109.18-.122.206-.137zm-.694.06c.038.014-.054.215-.26.566-.085.143-.135.315-.189.455-.072.136-.154.348-.314.813-.112.322-.296.628-.452.91-.41.742-.62.958-1.046 1.077-.385.108-.699.23-.828.322-.126.09-.166.101-.166.048 0-.085.256-.405.378-.406.307-.003 1.05-.426 1.098-.625.21-.453.536-.905.704-1.321.165-.568.498-1.068.653-1.63.025-.095.364-.231.422-.21zm6.384.76c.023.01.032.091.019.259-.1 1.005-.01 2.169-.166 2.952-.13 1.015-.382 1.972-.865 2.89-.261.782-.254 1.5-.301 2.246-.022.615-.04 1.148-.11 1.789-.125.569-.016.953.025 1.466-.001.42-.119.59-.114 1.02 0 .233-.041.302-.114.19-.042-.737-.096-1.417-.243-2.126-.11-.485-.056-1.061.012-1.495.134-.784.151-1.623.228-2.103-.015-.587.1-.865.264-1.414.445-.785.73-1.878.878-2.574.034-.905.068-1.58.247-2.384.076-.436.19-.742.24-.717zm-3.787 2.962c.045-.01.227.07.27.07-.097.52-.885 2.947-1.1 3.445-.097.222-.212.496-.256.611-.098.26-.364.204-.364.056 0-.19.171-.635.49-1.278.06-.305.29-.758.376-1.01.058-.102.573-1.842.574-1.883 0-.006.004-.01.01-.01zm.762 1.15c.375.173.465.202.794.258.535.091.545.295.513.563-.078.406-.165.78-.293 1.182-.068.18-.162-.304-.211-.628-.078-.508-.1-.583-.194-.649a2.832 2.832 0 00-.813-.441c-.065 0-.123-.079-.086-.116.007-.007.026-.007.052-.002s.206-.183.238-.168zm-5.907 1.818c.335.04.54.009.845.006l.047.914c.01 2.24.122 4.31-.003 6.718-.037 2.374.005 4.232-.1 6.622-.048.193-.08.286-.188.474-.066-.066-.635-.262-.699-.262a24.722 24.722 0 01-3.732-1.532c-.139-.037-.176-.37-.118-1.06.035-.74.046-1.51.054-2.212-.008-.229.09-.278.17-.278.12 0 .135.17.086 1.016-.057.98-.045 2.292.021 2.357a87.301 87.301 0 004.015 1.54c.08-1.393-.02-3.74.077-5.611.033-.563.06-3.633.055-4.283-.013-1.225.01-2.297-.036-3.567-.043-.388.064-.604-.168-.581-.731 0-1.49.067-2.238.036-.068-.068-.008-.25.581-.278.426-.016.918.007 1.33-.02zm-1.087.753c.56 0 1.133.019 1.207.052.11.051.11.051.086 1.387-.013.734-.029 1.42-.035 1.522.007 2.173-.032 4.235-.073 5.95a147.76 147.76 0 00-.042 2.763c-.002 1.111.028 1.246-.068 1.242-1.276-.309-2.396-.619-3.384-1.168l-.04-.525c-.052-.698.02-1.452.017-2.103-.05-.247 0-.44.114-.44.066 0 .069.083.036 1.11-.04 1.245-.035 1.62.02 1.722.796.497 1.75.643 2.682.973.247.107.325.138.361.043.015-.039.009-.726.02-1.554.12-3.115.12-6.479.158-9.202.023-1.306.037-1.5-.023-1.55-.052-.043-.241-.073-1.064-.074-1.051-.001-1.154-.01-1.098-.101.021-.033.567-.049 1.126-.047zm-2.526.085c.319-.02.202.516.15.802-.085.766-.162 1.616-.563 2.244-.199.3-.44.116-.256-.218a2.56 2.56 0 00.174-.391c.134-.34.219-.698.254-1.057.05-.43.068-.917.172-1.368a.375.375 0 01.07-.012zm20.202.515a.516.516 0 01.09 0c.032.005.055.014.055.029 0 .021-.043.05-.096.065-.162.043-.294.03-.275-.027.011-.034.127-.061.226-.067zm-.525.042a.649.649 0 01.1.001c.037.004.062.013.062.027 0 .022-.072.051-.16.065-.229.038-.273.034-.253-.025.011-.035.14-.062.25-.068zm-.45.247c.204 0 .172.095-.048.14-.381.08-.454.085-.42.031.049-.08.297-.17.468-.17zm-9.28.003c.041-.002.07.063.07.198-.161.667-.259 1.31-.365 1.95-.054.32-.09.433-.135.433-.066 0-.239-.252-.143-.99.067-.47.06-1.06.246-1.399.05-.137.286-.19.327-.192zm-8.47.005c.257-.002.481.032.672.022.088 0 .196.003.326.01.736.032.652-.034.675.972.022.964.087 1.955.1 2.598.03 2.41-.018 4.51-.16 6.815-.032.33-.142.367-.608.2-.7-.18-1.29-.374-1.883-.73-.046-.064-.05-1.75-.004-1.797a1.327 1.327 0 01.024-.312c.112-.012.065.507.068 1.14.005.903.018.975.188 1.009.54.24 1.167.397 1.656.545.381.135.434.087.48-.436.023-.936.021-1.9.04-2.804.062-1.106.07-2.293.052-3.3-.04-1.103-.11-2.211-.113-3.308 0-.454-.027-.473-.665-.481-.308-.041-.555.011-.88-.023-.17 0-.199-.07-.045-.11a.311.311 0 01.077-.01zm19.018.046c.008-.004.018-.003.031.001.018.006.04.02.067.044.043.039.099.07.125.07.025 0 .059.02.073.043.05.08-.177.042-.254-.043-.054-.06-.063-.104-.042-.115zm-.71.202c.154-.002.18.057.056.124-.092.049-.523.06-.568.015-.037-.037.329-.136.512-.138zm.502.125c.068 0 .102.02.092.053-.027.081-.202.093-.202.013 0-.043.038-.066.11-.066zm-1.34.003c.029.001.045.01.045.027 0 .042-.18.14-.258.14-.024 0-.133.04-.242.09-.11.049-.232.107-.273.128-.056.03-.074.022-.074-.029 0-.042.105-.115.283-.196.228-.103.431-.164.519-.16zm2.37.04c.022 0 .052.019.067.042.014.023-.004.042-.04.042-.037 0-.066-.019-.066-.042 0-.023.017-.042.04-.042zm.532.158c.058.011.106.047.106.079 0 .059-.06.07-.158.03-.101-.04-.058-.13.052-.109zm-2.934.01c.152 0 .109.08-.09.165-.116.05-.221.11-.235.132a.095.095 0 01-.077.04c-.078-.002.32-.336.402-.336zm.282.276c.03 0 .048.004.048.013 0 .016-.191.122-.425.235-.233.113-.504.215-.602.227-.25.031-.172-.035.264-.22.197-.085.378-.169.402-.188.044-.034.225-.068.313-.067zm2.928.064c.023 0 .042.028.042.063s-.019.063-.042.063c-.023 0-.043-.028-.043-.063s.02-.063.043-.063zm.23 0c.07 0 .235.108.235.154 0 .067-.076.072-.18.012-.065-.038-.107-.166-.055-.166zm-1.769.095c.072.017.07.02-.007.05a1.501 1.501 0 00-.158.07c-.093.049-.16.05-.16.001 0-.055.235-.143.325-.121zm-2.617.075c.05.001.04.019-.036.062-.124.071-.169.078-.169.026 0-.045.105-.09.205-.088zm5.083.21c.02 0 .06.03.088.064.043.052.042.064-.011.064a.104.104 0 01-.089-.064c-.013-.035-.008-.063.012-.063zm-4.66.186c.02-.004.033-.004.038.002.02.02-.336.237-.39.237a.59.59 0 00-.166.098c-.22.166-.264.176-.131.03.102-.111.519-.34.65-.367zm1.688.132c.008-.001.012 0 .012.006a.657.657 0 01-.116.147c-.123.13-.236.166-.196.062.02-.053.244-.208.3-.215zm-18.335.03c.18.007.347.156.483.446.074.158.169.353.211.434.13.35.16.741.223 1.08.092.46.102.933.139 1.397.128 1.282-.379 3.429-.87 3.683-.4.207-.728.083-.952-.362-.171-.339-.217-.641-.1-.665.077-.016.132.102.209.455.06.275.112.344.338.446.408.184.851-.554 1.12-1.864.118-.58.094-2.56-.039-3.196-.215-1.027-.54-1.651-.86-1.651-.146 0-.377.252-.438.478-.09.33-.132.41-.214.41-.153 0-.073-.286.19-.68.187-.28.38-.416.56-.41zm15.627.077c.09 0 .06.074-.07.166-.114.082-.215.114-.215.068 0-.041.235-.234.285-.234zm3.575.309c.012 0 .02.001.025.006.013.013-.012.062-.054.109-.08.088-.275.117-.275.04 0-.045.225-.152.304-.155zm-19.296.098c.289-.026.54.538.689 1.572.263 1.823.006 3.901-.547 4.423-.245.23-.496.226-.496-.01a.375.375 0 00-.062-.194c-.176-.233-.034-.33.327-.222.166.05.172.048.308-.101.413-.45.58-2.716.292-3.97-.197-.86-.23-.91-.6-.875-.261.024-.265.022-.265-.082 0-.115.152-.443.228-.493a.273.273 0 01.126-.048zm16.103.016c.03 0-.033.105-.138.234-.105.13-.19.253-.19.276 0 .022-.029.04-.063.04-.075 0-.041-.11.045-.143.033-.013.06-.044.06-.07 0-.07.226-.337.286-.337zm.696.042c.06 0 .036.117-.028.141-.034.013-.102.106-.152.206-.05.1-.14.234-.2.298-.105.112-.18.148-.18.089 0-.121.468-.734.56-.734zm-1.422.085c.095 0-.044.186-.25.338-.174.128-.242.154-.241.095.002-.09.39-.433.491-.433zm.825.127c.02 0 .024.03.011.064a.103.103 0 01-.088.063c-.053 0-.054-.01-.012-.063.03-.035.069-.064.089-.064zm2.395.086c.196 0 .18.1-.023.162-.278.083-.334.068-.217-.057a.312.312 0 01.24-.105zm-26.661.1c.162-.014.172.093.236.2.312.688.395 2.923.147 4.017a5.345 5.345 0 00-.074.474c-.093.234-.117.333-.37.385-.44.266-.209-.226-.165-.86.09-.507.061-2.884-.042-3.45-.098-.536-.088-.74.035-.74.056 0 .16-.012.233-.027zm-.54.011l.065.193c0 .187-.052.16-.126.421-.152.536-.357 1.107-.357 1.912 0 .804.204 1.841.355 2.046.116.157.238.272.146.405-.057.08-.108.258-.342.097 0-.012-.244-.244-.326-.441-.324-.779-.345-1.284-.302-2.243.042-.96.122-1.382.408-2.055.072-.297.311-.335.48-.335zm24.59.078c.023-.015.042.003.042.04 0 .036-.019.066-.042.066-.023 0-.042-.018-.042-.04 0-.022.019-.052.042-.066zm2.622.155c.066-.01.09.004.078.043-.01.03-.062.062-.115.07-.066.01-.09-.004-.078-.042.01-.031.062-.063.115-.07zm-3.392.081c.009-.005.019-.004.028.004.017.016-.031.107-.107.202-.077.095-.156.172-.178.172-.022 0 .017-.065.087-.144.07-.08.135-.17.146-.201.006-.016.014-.027.024-.032zm-18.46.025c.165-.003.392.001.702.005 2.663.032 2.624.029 2.678.164.414 1.02.471 2.648.138 3.888-.07.261-.124.396-.177.437-.061.048-1.33.076-2.71.06l-1.05-.011.02-.201a4.46 4.46 0 01.07-.412c.262-1.156.267-2.455.014-3.417-.11-.42-.18-.504.315-.513zm-4.076.103a54.124 54.124 0 001.97.064c1.422.028 1.512.04 1.541.198l.084.411c.206.997.12 3.044-.15 3.566-.04.08-.748.091-1.411.024-.163-.017-.72-.02-1.238-.005-.788.021-.942.015-.942-.034 0-.032.027-.192.06-.355.094-.472.094-2.884 0-3.37-.075-.387-.09-.487.086-.499zm25.806.037c.13 0 .559.21.582.286.021.071-.078.067-.232-.01-.316-.158-.476-.137-.863.116-.55.358-.76.613-.76.926 0 .16.128.155.172-.008.062-.232.18-.418.33-.517.857-.567 1.022-.584.933-.1-.062.333-.121.357-.317.124-.124-.148-.14-.154-.248-.105-.436.198-.903 1.064-.63 1.168.09.035.128.004.211-.17.086-.182.242-.269.347-.194.134.097.18.103.256.035.146-.133.418.029.306.181a2.532 2.532 0 00-.151.285c-.057.12-.118.225-.137.233-.1.044-.23.248-.207.323.082.257.627.261.97.009a.585.585 0 01.307-.126.903.903 0 00.287-.064.994.994 0 01.32-.063c.31 0 .59-.088.879-.278.362-.238.784-.278 1.135-.107.094.046.203.093.244.106.109.033.1.303-.011.373a3.531 3.531 0 01-.825.86c-.047.012-.179-.027-.293-.086-.215-.11-.5-.139-.618-.064-.093.06-.01.166.18.232.216.074.37.181.37.256 0 .083-.036.08-.27-.024-.409-.181-1.042-.075-1.042.175 0 .042-.018.087-.042.102-.023.014-.042.08-.042.147 0 .32-.232.582-.83.934-.305.18-.405.294-.375.43.025.115.02.119-.14.119-.112 0-.191.027-.243.085-.042.046-.103.084-.135.084-.114 0-.267.136-.267.238 0 .056.02.1.043.1.081 0 .04.123-.07.21-.124.098-.269.113-.345.037-.075-.075-.117-.006-.173.283-.034.177-.084.288-.165.369-.34.339-.601.124-.603-.496-.001-.232-.06-.63-.169-1.122a17.272 17.272 0 01-.09-.445 9.74 9.74 0 00-.508-1.402.555.555 0 01-.079-.22c0-.085-.291-.652-.52-1.012a2.976 2.976 0 00-.348-.408c-.255-.251-.265-.277-.164-.43.082-.127.167-.136.198-.02.028.11.156.11.38-.006.164-.084.2-.087.495-.042.426.064.646.06.745-.014a.358.358 0 01.178-.064c.054 0 .164-.068.245-.15.119-.118.315-.202.315-.134 0 .03-.207.61-.27.757-.156.361-.024.753.252.753.086 0 .073-.117-.024-.242-.107-.136-.11-.32 0-.556a.971.971 0 00.085-.318c.002-.524.88-1.34 1.441-1.34zm-3.953.27c.015.015-.007.065-.05.112-.08.088-.148.111-.148.05 0-.057.167-.193.198-.163zm.375.027c.01 0 .02.038.02.085 0 .047-.029.084-.065.084-.052 0-.056-.017-.02-.084.025-.047.054-.085.065-.085zm.772.096c.01.005.01.034.003.093-.008.067-.038.13-.067.14-.077.025-.066-.139.014-.205a.225.225 0 01.035-.025c.006-.003.011-.003.015-.003zm-12.006.078c.005-.003.01-.002.016.004.056.056.09 7.363.036 7.505-.014.036-.05.065-.081.065-.046 0-.147-.484-.137-3.025.007-1.702-.001-3.156-.018-3.232-.065-.289.102-1.276.184-1.317zm11.482.055c.015.003.026.027.026.062 0 .047-.019.097-.042.111-.024.015-.043-.012-.043-.059 0-.046.02-.096.043-.11a.021.021 0 01.016-.004zm3.899.093c.04-.013.064.032.064.14 0 .214-.098.44-.237.55-.11.087-.175.099-.324.06-.076-.02-.106-.14-.035-.14.084 0 .295-.222.377-.397.06-.128.115-.2.155-.213zm-4.738.355c.077 0 .076.038-.004.228-.07.168-.232.22-.232.075 0-.101.157-.303.236-.303zm3.609.15c.14.01.345.121.346.22 0 .064-.195.07-.233.011-.014-.023-.082-.042-.15-.042-.13 0-.164-.071-.074-.16.023-.024.063-.032.11-.028zm-4.505.1a.457.457 0 01.228.077c.213.136.537.402.6.493.034.05.19.239.346.42.182.211.349.464.46.7l.296.621c.194.533.412 1.05.554 1.592.024.146.055.285.07.309.04.064.133.89.136 1.2.002.288-.119.386-.208.17l-.165-.392a4.691 4.691 0 01-.176-.487 2.094 2.094 0 00-.127-.339 1.39 1.39 0 01-.106-.36 7.173 7.173 0 00-.433-1.43c-.31-.68-1.107-1.54-1.884-2.03-.155-.098-.147-.165.047-.368.116-.122.237-.181.362-.176zm-1.275.283c.235 0 .47.087.509.232.01.041.092.113.182.159s.478.395.862.776c.713.706.946 1.033 1.037 1.451.328.573.337 1.28.64 1.876a.87.87 0 01.102.282c0 .049.059.212.13.364.15.315.153 1.108.007 1.535h-.001c-.096.28-.201.274-.24-.014-.026-.2-.01-.295.11-.653.141-.419.14-.382.01-.643-.077-.155-.174-.278-.261-.331-.127-.077-.138-.1-.12-.25.015-.122-.008-.222-.083-.37a1.198 1.198 0 01-.103-.246c0-.023-.07-.152-.157-.286a3.518 3.518 0 01-.393-.796c-.167-.51-.587-1.042-1.223-1.552-.177-.142-.36-.293-.407-.337-.331-.309-.86-.646-1.163-.74-.267-.083-.302-.14-.117-.19.061-.016.197-.09.301-.166a.664.664 0 01.378-.1zm10.655.428c.224.291.235 1.44.224 1.717-.038 1.08.139 2.876.357 3.63.037.128.091.357.12.508.03.151.093.425.142.609.148.556.101.661-.383.851-.389.153-.67.398-.673.588 0 .073-.03.209-.066.302-.137.36-.185.606-.185.952-.002.776-.297 1.193-.63.889-.076-.07-.16-.126-.188-.126a1.05 1.05 0 00-.602.245c-.181.16-.637.336-1.275.494-.316.032-.626.232-.921.347 0-.266.011-3.359.009-3.496a695.12 695.12 0 01-.01-2.954c0-.407.124-.231.342-.214.111-.057.196-.08.288-.125.152-.072.404-.47.404-.637 0-.082.228-.526.456-.887.097-.152.137-.182.25-.182.074 0 .146-.017.158-.037.013-.02.097-.048.187-.063.165-.026.558-.377.558-.498 0-.19.628-.635.817-.865.348-.428.506-.712.621-1.048zm-11.468.241c.085-.004.17.022.304.075.457.338 1.07.737 1.29 1.086.517.235.637.563.908.979-.175.13-.63.094-.948-.106a.662.662 0 00-.217-.103c-.032 0-.266-.079-.52-.174a14.347 14.347 0 00-.662-.235c-.627-.189-1.07-.674-.84-.92.11-.118.111-.138 0-.198-.182-.097-.265.17-.267.522.004.405.06.44.376.578.209.102.37.337.73.357.44.024 1.108.189 1.24.305.073.063.373.167.596.206.084.014.226.089.318.166.374.27.78.54 1.016.935.034.072.102.205.15.296.11.212.081.532-.05.532-.059 0-.095-.05-.137-.193-.049-.169-.064-.186-.112-.128-.069.083-.03.313.092.552.115.227.413 1.075.413 1.178 0 .045.037.134.083.197.136.192.27.937.242 1.345-.03.417-.323 1.198-.45 1.198-.166 0-.214-.302-.087-.55a.804.804 0 00.085-.225c0-.033.068-.15.152-.26.221-.288.207-.556-.06-1.14a1.865 1.865 0 01-.134-.352c0-.032-.066-.087-.146-.12-.154-.065-.405-.382-.405-.512 0-.04-.04-.157-.09-.259-.108-.225-.08-.265.114-.16.216.115.26.045.145-.225-.159-.369-.459-.465-.646-.208-.095.13-.1.167-.089.688.013.605.116 1.543.184 1.67.042.139.055.275.08.415.043.084.189.442.303.741.113.295.712 1.15.996 1.422.362.346.663.819.773 1.213.046.163.113.382.15.487.215.608.26 1.644.094 2.111a1.146 1.146 0 00-.067.297c0 .067-.073.204-.184.345-.433.552-.467.936-.108 1.224.42.338.725.238.416-.136-.11-.134-.155-.158-.296-.158-.206 0-.215-.068-.051-.401.146-.3.195-.295.345.035.067.148.144.283.17.299.026.016.047.115.047.219 0 .196.085.288.178.195.13-.13.111-.889-.038-1.49-.186-.747-.079-1.098.336-1.1.131 0 .153.085.068.272-.038.084-.08.108-.19.108-.165 0-.176.045-.054.216.116.164.233.159.311-.015.222-.494.479-.43.429.107-.018.184-.011.354.015.423.08.211-.047.915-.261 1.45-.122.3-.149.876-.057 1.202.038.14.058.301.043.361-.048.19-.134.125-.191-.143-.076-.352-.118-.467-.22-.602a.675.675 0 01-.122-.268c-.017-.156-.212-.195-.437-.088a.683.683 0 01-.21.067c-.096 0-.32.12-.32.171 0 .023.046.06.102.081.233.119.43.224.647.368.272.129.434.705.242.865-.082.068-.074.14.025.23.164.147.07.317-.277.501-.457.105-1.011.123-1.383.022-.343-.176-1.557-.155-1.557.026 0 .049.058.057.286.042.248-.017.264-.014.123.023a.952.952 0 00-.252.104.479.479 0 01-.233.064c-.195 0-.156.08.077.158a.602.602 0 00.393.016c.337-.078.611-.062.664.038.03.055.09.085.168.085.31 0 .333.118.074.372-.203.2-.356.24-.307.082.095-.305.042-.385-.129-.196-.293.324-.77.263-1.19-.15-.272-.269-.7-.49-1.05-.542-1.035-.168-1.835-.636-2.398-1.228-.977-.997-1.522-2.225-1.955-3.419-.326-.852-.504-1.649-.904-2.48-.138-.298-.26-.617-.443-.928-.11-.266-.156-.668-.108-1.09.264-.655.344-1.509.317-1.905-.072-.775.55-1.569 1.218-1.791.308-.107.215.016.37 0 .302.463.776.832 1.162 1.153.388.52.119 1.012-.139 1.473-.107.099-.107.099-.015.254.236.401.688-.216.7-1.047.078-.542.027-.48-.407-.882-.54-.502-1.06-.921-1.06-1.047-.094-.139-.138-.315.057-.364.855-.534 1.16-.696 1.897-.88.149-.143.444-.107.793-.156.793-.239.987.027.796.173a10.36 10.36 0 01-.06.109c-.105.186-.009.318.383.52.377.194.748.724.877 1.254.041.168.087.326.102.35.052.085.109.047.106-.07-.011-.488-.335-1.377-.557-1.531-.196-.136-.216-.285-.045-.327.238-.138.518-.241.759-.299.264.028.282.122.673.04.245.028.269-.02.096-.194a7.617 7.617 0 00-1.043-.214c-.654-.044-.718-.061-.863-.242-.34-.198-.682-.087-.96.07-.503.142-.871.123-1.28.32-.917.126-1.138.62-2.298.987-.289.075-.494.138-.665.302-.428.413-.888.875-.973 1.512-.165.75.008 1.365-.276 2.258-.212.447-.124.656-.127 1.107.082.773 1.022 2.103.905 2.989-.225.245-.783.316-.959.45-.328.156-.475.575-.507.867-.047.437-.035.465.222.534.53.723 1.022.597.368-.028-.345-.326-.363-.396-.162-.632.134-.158.489-.359.633-.36.403-.336.783-.104.88.402.099.426.296.797.53 1.1.461.542.534.784.235.784-.515.08-1.107.205-1.604.072-.138.029-.248-.113-.417-.067-.126.114.091.476.276.617.196.15.564.192.872.1a5.549 5.549 0 001.232-.471c.217-.107.005.159-.028.203-.274.268-.557.56-.909.73-.687.179-1.753.778-1.734-.179-.137-.11-.06-.114-.184-.243-.098.139-.103.144-.19.236-.137.358.21.811.673.88.15.023.95-.119 1.442-.255.397-.154.738-.59 1.046-.734.272.373.47.522.411.816 0 .121-.48.564-.677.623-.606.287-1.204.54-1.735.478-.786-.027-.919.377-1.31.26-.215-.229-.662-.35-.848-.232-.09.057-.024.102.223.15.282.07.384.284.6.445.225.001.968-.176 1.022-.05.06.136-.307.228-.572.245-.398.033-.661-.045-.897-.267-.164-.12-.36-.214-.502-.324-.063-.165-.137-.194-.47-.18-.268.167-.351.678-.146.98-.144.29-.818.197-1.13.393-.32.215-.97.253-1.38.08-.145-.06-.079.196.078.276.099.05.244.074.453.074.244 0 .306.013.306.063-.044.07-.14.102-.215.131-.102.091-.363.109-.567.039a1.083 1.083 0 00-.425-.035c-.38.034-.378.036-.318-.822.028-.39.078-.84.11-.999a2.85 2.85 0 00.061-.408c0-.236.33-.313.853-.198 1.325.289 3.405.237 3.345-.084a7.44 7.44 0 01-.042-.31c-.028-.23-.236-.461-.42-.466-.081-.002-.063.235.032.422.123.242.114.38-.026.38-.288.022-.67-.337-1.145-.079-.301.163-.67.2-.737.074-.059-.644.075-1.205.174-1.815-.004-.722.452-1.22.865-1.779 0-.136-.02-.27-.047-.297-.076-.076-.305.063-.335.203-.375.546-.486.945-.61 1.534-.15.7-.21 1.062-.211 1.302-.24.558.131-1.708.121-2.116.059-.543.128-1.135.145-1.608a.084.084 0 00-.045-.04c-.121.083-.123.276-.192.434-.052.338-.052.599-.148.882-.035.713-.043 1.213-.127 1.868-.022.096-.05.435-.061.752-.023.638.046.643-.095.643-.15 0-.181-.071-.235-.55-.094-.84.02-.901.088-1.587.094-.968.11-1.475.064-1.915-.07-.66-.048-.83.17-1.333.333-.533.234-1.085.274-1.586.095-.203.117-.291.083-.325-.067-.068-.18.015-.225.166-.097.217-.122.463-.143.668-.12.646-.37 1.235-.49 1.833.104.646.133 1.453.026 2.126a4.34 4.34 0 00-.06.537c0 .216-.032.315-.103.315-.102 0-.12-.97-.027-1.59.125-.846.138-.993.092-.993-.161.298-.175.661-.273.954-.134.487-.12.695-.064.903.028.108.054.482.058.832.006.597.013.648.118.847.166.316.205.675.069.636a21.517 21.517 0 00-.171-.049c-.09-.025-.15-.181-.202-.538-.023-.16-.062-.313-.085-.341-.19-.228-.244-1.263-.107-2.01.103-.56.219-1.684.25-2.44.155-1.211.314-2.635.946-3.734.979-1.349 1.72-2.969 2.51-4.199.529-.813 1.235-1.676 1.88-2.185.332-.355.685-.425 1.09-.514.236-.066.247.091.44.161.206.074.617.178.877.222.327-.046.58-.418.907-.402.465.02.891.136 1.377.748.2.252.356.363.297.21-.075-.254-.218-.464-.354-.717-.136-.253-.924-.602-1.354-.596-.278.064-.537.291-.752.4-.442.033-.934-.187-1.237-.394 0-.027.257-.18.572-.342.686-.399 1.37-.686 2.06-1.02.22-.102.473-.192.665-.278.134-.067.219-.101.304-.106zm-19.922.326c.03-.004.167.09.182.167.021.113 0 .546-.036.724-.011.052-.142.037-.162.037-.081 0-.12-.506-.062-.8.016-.08.047-.124.078-.128zm28.677 1.309c.066 0 .131.075.131.151 0 .01-.047.018-.105.018-.078 0-.106-.022-.106-.084 0-.055.028-.085.08-.085zm1.006.01c.1.003.087.024.034.11a.993.993 0 01-.156.187c-.149.13-.414.084-.414-.072 0-.152.122-.221.395-.225.061-.001.107-.002.14 0zm-.825.297c.113-.016.099.068-.094.233a1.65 1.65 0 00-.306.402c-.206.386-.23.424-.303.464-.04.022-.066.094-.066.176 0 .096-.048.201-.154.337-.147.189-.32.26-.41.17-.057-.058-.026-.1.073-.1.217 0 .137-.422-.105-.552-.108-.058-.103-.125.009-.125.05 0 .165.068.257.151.205.185.227.17.16-.114-.052-.213-.05-.224.047-.297.286-.212.33-.259.355-.373.02-.087.081-.156.207-.23.148-.087.262-.132.33-.142zm10.839.433c.413-.006.774.123 1.176.2.062 0 .08.019.062.066a.425.425 0 00-.026.123c-.259.027-1.138-.13-1.325-.185-.117-.03-.105-.13.02-.198a.288.288 0 01.093-.006zm-34.764.233c.11 0 .327.017.286.44a178.607 178.607 0 01-.272 4.787c-.101 1.347-.15 2.74-.158 2.824-.02.223-.341.03-.385.03.137-2.764.292-5.22.444-7.752 0-.3.008-.329.085-.329zm36.172.17c.062 0 .114.06.15.317.597 1.05 1.034 2.05 1.538 3.091.078.117.212.34.296.497.085.157.138.286.119.286-.056 0-.22-.12-.256-.237-.017-.059-.151-.166-.227-.26-.399-.833-.896-1.612-1.261-2.52-.112-.367-.297-.706-.421-1.074 0-.06.025-.1.062-.1zm-13.736.55c.062 0 .085.028.085.106 0 .122.002.12-.096.047-.099-.076-.093-.153.011-.153zm-22.828.1c-.054 1.17-.103 2.225-.27 3.376-.715.148-1.322.098-2.02.078.035-1.15.036-2.299.036-3.448l1.076-.002 1.178-.004zm22.15.239c.176 0 .211.055.144.229-.054.142-.313.038-.313-.126 0-.093.018-.103.17-.103zm-3.036 1.363c.02.001.048.007.084.014.172.037.172.037.138.144-.039.123-.215.116-.249-.009-.03-.117-.034-.152.027-.149zm-1.024.923l.187.21c.15.408.456.733.479 1.009-.173.173-.627-.147-.627-.442 0-.061-.092-.772-.039-.777zm11.471.296c.087 0 .034.202-.082.313-.162.155-.42.194-.523.08-.117-.13-.09-.182.09-.182.104 0 .22-.037.319-.105a.73.73 0 01.196-.106zm.59.169c.065 0 .298.382.296.485 0 .048-.05.141-.109.208-.106.121-.106.121-.2.036-.118-.11-.452-.171-.452-.084 0 .034.072.107.159.164.169.11.175.135.115.49-.03.17-.023.184.187.393.263.263.262.391-.013 1.023-.02.048.028.118.169.242.214.188.238.352.06.409-.1.031-.112.128-.02.163.036.014.063.078.063.15 0 .07.019.138.042.152.104.065.02.093-.265.09-.26-.003-.34.016-.527.116-.162.088-.312.127-.571.152-.39.037-.8.279-1.036.502-.181.26-.353.435-.458.656a1.678 1.678 0 01-.25.347c-.096.102-.219.197-.274.213-.11.031-.108.062-.021-.36.028-.14-.075-.224-.165-.134-.083.083-.105.054-.134-.18-.036-.29-.168-.641-.301-.8-.1-.138-.148-.31-.21-.447-.14-.245-.136-.274.079-.529.235-.278.281-.422.281-.867 0-.2.028-.468.061-.597l.135-.527c.089-.349.14-.403.616-.643.202-.102.38-.205.394-.23.048-.076.107-.046.107.056 0 .07-.042.117-.15.169-.275.13-.257.266.027.201.102-.023.338-.072.524-.109.4-.079.69-.204.968-.417.124-.094.25-.154.323-.154.075 0 .151-.037.198-.096.087-.107.284-.243.352-.243zm-28.444.133c.034.01.065.138.073.347-.043.37-.054.75.009.97 0 .172.399.563.74.725.932.554 1.863 1.089 2.747 1.56.094.033.07.153.07.228 0 .055-.015.1-.033.099-.297-.193-.756-.374-1.016-.55-.877-.508-1.772-1.096-2.596-1.552-.14 0-.154-.027-.185-.359.069-.432-.037-.825.015-1.339.018-.087.156-.135.176-.13zm35.492.33c.248.388.511.8.764 1.167.147.195.19.289.19.412 0 .16 0 .16-.222.155-.213-.008-.411-.076-.614-.12-.21-.005-.156-.24-.158-.838.002-.268-.034-.528.04-.776zm-17.554.003c.177 0 .262.136.18.286a1.08 1.08 0 00-.066.275c-.026.2-.07.249-.135.148-.06-.093-.04-.709.021-.709zm-20.97.66c.484-.003.965.011 1 .045.084.085-.003.398-.125.447v.001c-.21.086-1.892.098-1.924.013-.052-.134-.03-.392.038-.448.042-.035.528-.055 1.011-.058zm31.789.068c.044.005.085.048.143.132.107.158.114.215.049.404-.068.192-.128.176-.229-.064-.03-.073-.096-.146-.144-.162-.116-.036-.114-.08.019-.21.07-.071.118-.105.162-.1zm-17.768.088c-.03.01-.059.165-.074.394-.325.907-.064 2.068-.344 2.812-.185.43-.299 1.394-.183 1.547.083.234.072.457.11.71.031.11.066.157.111.148.058-.012.068-.156.079-1.093-.101-.946.26-1.613.292-2.392.01-.256.039-.789.064-1.183.048-.728.034-.973-.055-.943zm7.665.755c.018-.002-.003.058-.094.327a1.841 1.841 0 00-.106.684c0 .206-.012.404-.026.441-.038.101-.143.08-.143-.028.002-.51.196-1.32.338-1.407.014-.01.024-.016.03-.017zm-22.738.112c.072-.002.223.019.361.016.184-.003.457.002.822.005.83.007.831.007.807.13-.014.069.008.252.008.308-.682.05-1.448.02-2.15.013-.159-.032.08-.382.11-.46.003-.008.018-.011.042-.012zm19.165.1v.001c-.138.014-.207.103-.054.203.056.037.164.121.24.188.106.091.642.248.738.234.121-.018.424.269.404.393-.532.54-.764.542-.69 1.213-.15.85-.153 1.116-.216 1.454 0 .69-.103 1.432-.07 1.777.02.206.048.282.135.362.145.134.494.129.494-.01 0-.062-.041-.094-.155-.122-.25-.062-.311-.398-.205-1.115.024-.158.06-.468.082-.689.096-.752.236-1.358.627-1.98.377-.554.58-.682.704-.443.239.46.748.72.745.38-.001-.099-.042-.177-.148-.283a.774.774 0 01-.147-.174 1.834 1.834 0 01-.462-.515c-.213-.44-.439-.649-.745-.687-.423-.118-.903-.123-1.277-.187zm13.786.177c.144-.01.253.158.196.387-.033.13-.072.137-.143.024-.034-.054-.098-.085-.18-.085-.159 0-.17-.113-.024-.25a.255.255 0 01.151-.076zm8.72.452c.175.138.415.3.638.382.131.035.216.106.394.33.126.156.269.32.319.365.05.044.09.096.09.116 0 .057-.09.036-.318-.073a1.855 1.855 0 00-.348-.128c-.098-.02-.18-.083-.284-.223-.081-.108-.233-.302-.338-.43-.185-.227-.236-.339-.153-.339zm-40.16.141c.22.002.383.009.428.023.006.142.004.16.01.292.003.19.003.142-.8.13-.424-.005-.848 0-.941.012-.551.07-1.168.08-.963-.151.038-.015.088-.262.335-.271.092-.004 1.271-.04 1.932-.035zm41.804.228l.184.03c.52.038.957.22 1.423.419.305.158.271.42-.052.273-.467-.214-.75-.275-.811-.176-.072.116-.043.23.096.316.49.644 1.34.42 1.908.554.158.132-.05.332-.344.332-.43.146-1.01.26-1.347.512-.006.013-.16.01-.344-.008-.325-.013-.676.041-.895-.02-1.294-.298-2.641-.746-3.768-1.035-.427-.136-.881-.181-1.248-.427-.513-.197-.465-.366-.492-.662.01-.009.18.07.382.176.257.17.527.156.787.21.772.077 1.06.096 1.797-.066.358-.125-.001-.183.468-.22.418-.033.606.02.77.215.31.367.332.383.588.438.138.03.271.07.297.09.07.053.913.288 1.035.289.27 0 .295-.331.046-.63a13.88 13.88 0 01-.322-.403zm-.3.182c.063 0 .731.686.732.751 0 .175-.258.046-.506-.254-.22-.265-.326-.497-.227-.497zm-15.288.216c.508-.04.82.381.906 1.244.028.28.068.6.09.712.081.429.001.808-.095.449-.086-.321-.148-.48-.19-.493-.081-.026-.27.21-.27.337-.154.15-.22.368-.328.58-.006.01-.068-.023-.136-.074-.236-.174-.302-.035-.098.207.183.674.192.977.046 1.367-.02.137-.188-.096-.224-.31-.04-.235-.16-.452-.403-.729-.155-.177-.211-.275-.211-.37 0-.128-.104-.303-.452-.756-.244-.318-.367-.62-.337-.828.077-.673.034-.523.07-.761 0-.046.058-.074.2-.094a2.31 2.31 0 00.857-.286c.213-.117.405-.181.575-.195zm-26.572.052c.167.005.331.04.477.062.301.034.375.104.309.292-.041.115-.052.119-.38.128v-.001c-2.251.059-2.492.052-2.572-.076-.065-.104 0-.288.108-.311a45.91 45.91 0 012.058-.094zm31.425.371v.001c.082.006.143.04.153.111.012.083-.005.096-.135.096-.082 0-.161.02-.177.045a.28.28 0 01-.119.079c-.255.095-.281.095-.281.009 0-.166.264-.313.47-.337.032-.004.062-.004.089-.004zm-6.981.245c.061 0 .114.018.147.058.063.076.107.347.074.451-.046.146-.12.105-.09-.05.056-.3-.226-.44-.404-.2-.102.138-.163.163-.163.067 0-.167.253-.325.436-.326zm-24.466.103c.26.002.515.023.654.044-.015.023.026.125-.098.112-.282-.009-.525.016-.74.018-.585.005-.848.199-.788.579.026.159.022.165-.093.165-.153 0-.253.078-.27.211-.013.105-.018.106-.473.118l-.46.013c.018-.397.057-.828.127-1.193.69-.072 1.4-.06 2.14-.067zm21.17 0c-.012.007-.019.035-.019.087-.157.253-.258.612-.536.447-.292-.18-.375.053-.11.31.104.1.225.166.35.193.292.064.335.059.446-.053.122-.122.127-.207.037-.61-.054-.237-.132-.396-.168-.374zm9.114.19c.03.002.056.01.076.024.046.031.156.07.245.087.12.022.157.047.146.1-.012.063-.068.071-.436.06a3.079 3.079 0 00-.732.057c-.09.02-.18.034-.257.041a.856.856 0 00.103-.054c.203-.125.642-.337.855-.316zm-30.267.12c.477-.01 1.188.04 1.354.11.312.135.3.224-.037.26-.28.029-1.612.03-1.751-.001l-.18-.038c-.147-.032-.131-.221.021-.254l.222-.048c.079-.017.212-.027.37-.03zm2.554.057c.114 0 .18.038.597.34.947.633 1.842 1.206 2.796 1.816.088.052.16.112.16.133 0 .132-.508-.074-.673-.271a33.367 33.367 0 01-2.277-1.457 9.009 9.009 0 00-.426-.307c-.247-.164-.31-.254-.177-.254zm46.734.215c.041-.003.08.015.096.056.016.042.04.164-.059.176-.431.506-.798 1.031-1.266 1.505-.106.243-.242.341-.257.55-.112.294-.167.515-.295.123-.123-.369-.113-.401.226-.73.533-.547.966-1.067 1.44-1.607a.15.15 0 01.115-.073zm-46.893.052c.012-.003.036.013.081.046.202.129.385.25.577.398.614.37 1.115.829 1.688 1.211.438.359.99.644 1.365 1.024 0 .091-.175.07-.303-.036a2.713 2.713 0 00-.292-.2c-.84-.681-1.667-1.25-2.474-1.824-.235-.166-.493-.35-.656-.551 0-.043.001-.065.014-.068zm21.786.032c.057.074.049.205.068.313.075.102.072.402.001.5-.106.14-.195.016-.195-.275 0-.101-.02-.205-.045-.23-.095-.094-.028-.287.104-.302a.717.717 0 01.067-.006zm6.066.168c.281 0 .281 0 .307.158.014.088.044.203.065.256.054.269.08.558.124.799.091.452.112 1.07.04 1.204-.076.143-.52.266-1.206.335-.338.033-1.195.23-1.485.34-.234.089-.267.049-.164-.198.069-.164.149-.884.149-1.34 0-.381.072-.54.324-.71.113-.075.32-.255.46-.4.178-.184.303-.275.422-.307.32-.086.683-.137.964-.137zm8.064.017a.12.12 0 01.063.006c.166.049.158.184.23.326.295.374.209.357.642 1.003.377.575.645 1.244 1.004 1.833.048.093.134.321.273.467.305.399.352.602.565.827.995.402 2.135.686 3.113.995.654.177 1.298.398 1.871.59.963.354 1.976.74 2.829 1.034.063.033.319.148.538.164.473.051.435-.316.735.19.3.505.016.39-.459.192-.53-.204-1.163-.455-1.678-.642a96.306 96.306 0 00-4.275-1.434c-.648-.205-1.3-.375-1.917-.57-.373-.13-.734-.244-1.037-.408-.635-1.17-1.73-2.813-2.212-3.865-.292-.367-.399-.679-.285-.708zm-38.812.007c.06-.003.198-.001.426.006.704.02.907.05.7.099-.171.04-.517.037-.7-.006a6.732 6.732 0 00-.38-.074c-.087-.014-.106-.022-.046-.025zm24.016.153c.17-.014.328.156.328.352 0 .047.04.208.09.36.154.474.159.511.159 1.29 0 .57.017.817.066.975.036.116.066.254.066.306 0 .073-.023.096-.102.096-.075 0-.107-.027-.117-.095a.12.12 0 00-.108-.11c-.11-.015-.118-.081-.051-.446.058-.311.006-.479-.246-.792-.193-.24-.26-.384-.374-.801a.884.884 0 00-.21-.383c-.175-.18-.18-.223-.038-.288.23-.105.414-.047.528.166.062.115.162.101.194-.027a.274.274 0 00-.204-.348c-.215-.055-.201-.237.019-.255zm-24.562.05a.29.29 0 01.115 0c.087.014.324.026.525.026.366 0 .366 0 .452.164.085.164.085.165-.108.191-.343.047-.49.027-.646-.085-.082-.06-.2-.127-.265-.15-.138-.052-.155-.126-.073-.147zm2.424.027c.196-.002.41.033.59.11.197.084.286.145.286.196 0 .069-.063.074-.74.074-.74 0-.74 0-.74-.105 0-.17.277-.272.604-.275zm37.704.01c1.107.236 2.102.618 3.008.793.301.051.54.273.766.709.5.875 1.106 1.567 1.478 2.434 0 .102.143.621-.797.345-.881-.24-1.61-.141-2.163-.544-.724-1.127-1.476-2.432-2-3.323-.119-.187-.184-.214-.292-.413zm-38.626.032c.144 0 .194.052.102.108-.025.016-.034.074-.02.13.023.093.013.1-.134.1-.16-.002-.101-.013-.1-.084 0-.07-.005-.061-.013-.156-.007-.095.01-.098.165-.098zm20.134.056c-.043.008-.08.032-.132.04 0 .03.02.12.042.201.17.291-.037.319.44.55.368 0-.149.933-.448 1.308-.379.492-.59.628-1.135.77-.128.094-.12.04-.28-.067-.193-.131-.223-.128-.401 0-.08.057-.187.123-.24.146a8.068 8.068 0 01-.762 1.018c-.21.227-.26.33-.194.396.067.066.186.018.246-.097.036-.07.129-.188.207-.265.224-.351.467-.676.832-.769.23.032.258.053.148.116-.129.073-.36.322-.36.387 0 .117.095.113.226-.012.162-.153.255-.201.46-.238.225-.139.4-.259.638-.364.338-.163.682-.328.967-.566a.832.832 0 00.053-.223c.042-.308.19-.703.31-.829a.586.586 0 00.143-.318c.017-.111.063-.286.101-.39.145-.389.042-.578-.34-.622-.14-.016-.295-.063-.352-.107-.076-.062-.125-.072-.169-.065zm-21.76.146c.11.08.181.11.288.197.035.065-.03.132-.073.132-.062 0-.26-.18-.26-.232 0-.018.033-.092.046-.097zm1.986.285c1.229-.001 1.566.01 1.566.051 0 .03-.043.063-.095.073a7.098 7.098 0 01-1.048.092c-.221.004-.717.017-1.1.029-.762.023-.89.002-.89-.148 0-.096 0-.096 1.567-.097zm23.461.002c.091.035.16.208.16.402 0 .157-.081.234-.143.135-.063-.103-.078-.56-.017-.537zm-21.386.299c1.101.021 1.828.36.697.46a6.602 6.602 0 01-1.27.022c-.755-.04-.834-.06-.817-.207.018-.156.227-.217.899-.263a5.64 5.64 0 01.49-.012zm22.121.145c.18 0 .182.057.012.217-.304.284-.392.486-.394.908-.005.82.191.823.578.006.041-.086-.018-.22-.114-.256-.09-.035-.08-.124.03-.299.135-.21.356-.277.248-.074-.056.105-.059.346-.007.484.055.144.331.303.411.237.033-.027.073-.035.09-.02.05.05-.057.172-.185.209-.29.085-.609.311-.609.432 0 .054-.019.11-.042.125-.023.014-.043.054-.043.089a.632.632 0 01-.107.22 1.267 1.267 0 00-.149.315c-.027.099-.068.159-.11.159-.055 0-.063-.03-.04-.16.096-.563.09-.639-.062-.795-.342-.353-.401-1.356-.084-1.421.097-.02.193-.087.289-.203.117-.14.17-.173.288-.173zm2.778.2c.017-.007.037 0 .059.022.133.133-.043 1.442-.294 2.18-.148.436-.429.996-.767 1.532a.741.741 0 01-.129.172c-.034 0-.022-.546.02-.932l.081-.75c.074-.42.234-.83.268-1.143.07-.281-.09-.608.235-.402.14.09.18.141.18.232 0 .187.12.142.22-.082.071-.162.083-.252.063-.484-.016-.194.012-.328.064-.346zm20.917.06h.001c.173-.033.4.379.286.517-.092.313.253.584.42.777.17.201.349.45.512.656 0 .033-.118.03-.165-.018-.148-.176-.319-.385-.45-.542a4.1 4.1 0 01-.628-.93c-.11-.252-.013-.278.024-.46zm-16.903.077c.025 0 .056.03.07.065h-.001c.03.078.012.1-.06.074-.063-.023-.07-.14-.009-.14zm-30.289.105a.394.394 0 01.131.043.836.836 0 00.252.064c.054 0 .11.02.124.042.015.026-.045.04-.156.037-.297-.01-.373-.035-.373-.125 0-.04.002-.059.022-.061zm-1.814.007c.173 0 .346.006.5.01.918.026.93.027.797.1a.623.623 0 01-.241.075c-.987.266-2.016.499-3.01.76-.51.136-2.437.185-2.437.07 0-.036.714-.292.923-.342a76.756 76.756 0 012.966-.652c.155-.016.328-.021.502-.02zm31.93.015c.023 0 .063.039.089.087.025.047.038.11.03.137-.01.028-.05-.011-.089-.087-.04-.075-.053-.137-.03-.137zm6.977 0c.062 0 .15.117.372.487.506.688.796 1.342 1.257 1.964.176.205.206.374.085.48-.089.077-1.561.093-1.608.015-.015-.023-.04-.662-.056-1.42-.016-.758-.044-1.41-.06-1.451-.017-.041-.012-.075.01-.075zm5.566.012c.97.113 1.321.256 2.587.802.163.29.922 1.436.984 1.649.235.295 1.314 1.9.867 1.73-.31-.093-1.452-.641-2.016-.813-.653-.167-.83-.946-1.172-1.46-.276-.398-.507-.824-.759-1.235-.14-.21-.523-.641-.491-.673zm-40.905.044c.14-.001.25.004.297.016.113.03.109.081-.01.113-.207.055-1.386.03-1.386-.03 0-.046.68-.097 1.099-.1zm22.393.198c.1 0 .114.02.152.223.032.17-.011.2-.16.112-.11-.064-.1-.335.008-.335zm5.454.095c.066-.022.072.465.008.586-.078.144-.125.088-.121-.141.005-.27.043-.422.113-.445zm-28.365.016c.165-.015.355.115.342.288-.014.19-.065.215-.312.154-.231-.056-.317-.237-.179-.375a.236.236 0 01.149-.067zm20.511.055c.085-.02.201.058.32.237.121.182.138.238.12.402-.036.325-.147.764-.235.926a5.556 5.556 0 00-.138.27 1.024 1.024 0 00-.255.362c-.08.08-.104.063-.177-.12-.082-.204-.086-.302-.016-.373.029-.029.065-.18.08-.336.015-.156.06-.398.101-.538.04-.14.071-.361.067-.492-.006-.204.048-.32.133-.338zm-19.424.019c.278.009.624.103.848.255.235.16.377.28.354.303-.027.027-1.467.056-1.568.031-.09-.022-.108-.44-.021-.508.077-.062.22-.087.387-.081zm-2.592.042c.086 0 .2.002.352.005.633.012.742.04.742.193 0 .19.128.256.541.283.245.016.379.04.354.065-.095.096-1.68.056-1.869-.047-.182-.1-.381-.314-.381-.412 0-.07.003-.087.26-.087zm30.698.007c.055.011.285.217.307.285.03.096.125.094.195-.003.099-.136.162-.15.162-.033 0 .085-.038.123-.196.192-.29.13-.353.116-.356-.078a.534.534 0 00-.062-.216.537.537 0 01-.062-.139c0-.007.004-.01.012-.008zm-31.139.317c.088 0 .286.3.327.497.04.192-.025.174-.228-.064-.187-.218-.236-.433-.099-.433zm47.123.006c.024.006-.008.1.032.181.037.076.23.316.43.533.343.373 1.341 1.962 1.342 2.185 0 .175-1.044-1.393-1.245-1.782a1.19 1.19 0 00-.23-.275c-.198-.173-.433-.55-.433-.693 0-.073.08-.155.104-.15zm-15.128.205c.036 0 .122.046.154.123.147.233.33.457.415.71 0 .16-.27-.113-.315-.318a.68.68 0 00-.173-.263c-.156-.151-.189-.252-.081-.252zm-.395.273c.243-.009.456.065.456.204 0 .1 1.376 1.596 1.469 1.597.09 0 .103-.08.031-.19-.068-.103-.067-.106.033-.106.075 0 .121.038.17.143.069.142.069.143 1.099.17 4.663.125 4.455.114 4.597.248.055.052.18.133.277.18.235.112.265.254.063.298-.696.251-1.407.433-1.918.55-1.82.433-3.723.915-5.297 1.292-1.054.172-2.005.442-3.021.675-.383.089-.514.096-.784.043-.77-.086-1.503-.12-2.306-.17-1.965-.125-2.755-.197-2.75-.248 0-.015.075-.11.165-.213.164-.187.164-.187.496-.097.694.187 1.152.156 1.427-.095.293-.269.172-.578-.248-.635-.428-.058-.509-.167-.16-.216.388-.053.901-.158 1.45-.294.927-.214 1.846-.368 2.689-.584.14-.036.32-.077.402-.09.279-.047.423-.17.423-.363 0-.2.072-.223.14-.043.026.07.072.127.102.127.08 0 .066-.171-.025-.32-.09-.147-.192-.985-.168-1.374.015-.232.015-.232.29-.253.179-.014.342-.058.466-.125.128-.07.285-.105.432-.11zm-29.103.008c1.879-.006 2.047.007 1.8.136-.076.04-2.814.088-3.408.06-.292-.013-.328-.024-.328-.097 0-.104-.24-.092 1.936-.099zm22.226.435c.01.007.01.032-.008.074a13.91 13.91 0 00-.134.4c-.057.176-.162.4-.234.497-.158.216-.25.23-.25.039 0-.232.065-.38.297-.689.162-.215.299-.342.329-.32zm8.116.384c.04-.01.128.041.212.13.11.114.114.126.037.126-.079 0-.27-.16-.27-.225 0-.018.009-.027.021-.03zm-.719.213a.064.064 0 00-.064.063c0 .035.03.064.064.064a.064.064 0 00.064-.064.064.064 0 00-.064-.063zm-1.873.008c.027.01.057.086.065.218.012.182-.019.24-.09.17-.016-.016-.028-.113-.028-.216 0-.128.025-.183.053-.172zm-5.344 0c.071-.03.168.21.168.512 0 .178-.075.326-.166.326-.018 0-.068.081-.11.18a2.202 2.202 0 01-.158.297 3.727 3.727 0 00-.22.438c-.077.177-.18.361-.23.41-.103.105-.116.047-.028-.126.376-.742.589-1.335.686-1.908.014-.078.035-.118.058-.128zm6.877.077c-.102 0-.072.117.1.374.088.133.173.275.188.315.015.04.05.073.076.073.03 0 .036-.029.017-.075a8.85 8.85 0 01-.08-.2c-.1-.262-.24-.487-.3-.487zm-8.678 0c.053 0 .063.064.062.35h.001c-.001.253-.023.388-.078.492-.103.195-.147.107-.093-.186.03-.168.03-.264-.005-.34-.057-.125.01-.316.113-.316zM11.399 45c.347.006.342.03.333.077-.02.11-.114.192-.901.146-.522.03-2.667.019-2.478.123.082.043.153.058.273.117 1.043.593 2.041 1.038 2.987 1.741 0 .052-.621.058-.652.006-.013-.02-.143-.094-.289-.164-.266-.128-.973-.54-1.45-.845a18.455 18.455 0 00-.964-.561c-.265-.235-.515-.277-.716-.394-.18.041-2.157.088-2.287.054.024 1.24.058 2.562.029 3.664.265.13.421.327.64.522.804.817 1.838 1.523 2.606 2.163.55.5.79.55.878.386.062-.114.067-3.24.006-3.731-.05-.407-.011-.63-.005-.71.19-.026.234-.035.521-.027.194.005.644.008.9-.024.36-.045.571-.066.694-.06.123.004.158.036.167.097.023.162-.033.178-.696.193-.347.007-.698.025-.78.038-.17.026-.337.037-.439.053.017.162.028.441.047 1.695.005.835.019 1.882.03 2.327-.055.6.078 1.502-.356 1.11-.347-.28-.519-.429-1.102-.87-1.109-.983-2.175-1.824-3.136-2.801-.26-.258-.285-.37-.244-.736.02-1.246-.04-2.188.022-3.488 2.234-.013 4.505-.147 6.362-.101zm28.313.095c-.039-.01-.075.009-.075.067 0 .045.013.093.028.109.066.065.146.024.134-.067-.01-.06-.049-.099-.087-.11zm-.478.035c-.082 0-.079.125.003.244.078.11.14.12.174.03.03-.08-.094-.274-.177-.274zm7.38.223c.077.006.19.038.32.093.072.03.214.09.313.13.099.041.18.091.18.11 0 .052-.128.04-.276-.025-.07-.03-.24-.082-.38-.113-.188-.043-.258-.079-.269-.138-.009-.045.034-.064.112-.057zm-8.156 0a.066.066 0 00-.056.021c-.025.025-.034.095-.018.155.037.146.195.154.195.008 0-.095-.063-.176-.121-.183zm-.58.05a.054.054 0 00-.028.015c-.037.037-.034.075.008.155.067.126.213.145.213.029 0-.1-.12-.214-.193-.2zm-31.211.108c.145 0 .164.107.025.142-.202.05-.648.072-.703.035-.09-.062.018-.107.278-.115.123-.004.237-.019.252-.034.016-.015.082-.028.148-.028zm30.93.01c-.046.011-.085.068-.058.113.042.067.15.055.15-.015a.115.115 0 00-.045-.09.064.064 0 00-.047-.007zm-30.013.032c.144 0 .235.18.204.407-.037.269.378.702.82.856.506.176.686.308.573.42-.045.045-.882-.398-1.056-.559-.091-.084-.175-.142-.187-.13-.05.05.11.254.325.419.126.096.307.241.404.323a6.7 6.7 0 00.3.24c.196.142.106.152-.102.01a.958.958 0 00-.225-.123c-.16 0-.812-.66-.978-.99-.167-.332-.215-.873-.078-.873zm-1.898.093c.04 0 .085.011.13.035.129.07.097.14-.099.221-.218.09-.242.09-.242.013 0-.166.09-.269.211-.27zm24.691.233c.02.01.043.053.068.135.1.332-.085.79-.36.895-.32.122-.338-.156-.02-.317.237-.12.259-.16.259-.47 0-.173.021-.257.053-.243zm1.323.012c.077 0 .08.033 0 .17-.082.143-.082.338 0 .338.035 0 .063.029.063.064s-.016.063-.036.063c-.084 0-.416.343-.506.523a1.428 1.428 0 01-.296.365c-.215.184-.332.23-.19.075.048-.052.14-.2.203-.328a1.79 1.79 0 01.318-.423c.173-.162.208-.222.234-.402.036-.256.126-.445.21-.445zm.43.099c.027.027-.073.257-.126.29-.11.07-.103.027-.002-.136.062-.094.12-.163.128-.154zm16.416.083c.066-.002.22.014.411.05.488.148 1.043.275 1.486.487 1.192.431 2.326.658 3.404 1.16.494.271.33.299-.108.162-.98-.335-2.288-.74-3.271-1.1-.64-.227-1.3-.438-1.79-.558-.156-.038-.199-.199-.132-.201zm-41.653.072c.104 0 .19.02.19.042 0 .024-.086.043-.19.043-.105 0-.19-.02-.19-.043 0-.023.085-.042.19-.042zm1.14 0c.072 0 .358.176.36.222.004.052-.136.032-.283-.042-.14-.07-.187-.18-.077-.18zm.743.042c.097 0 .634.296.635.35.001.053-.105.035-.17-.03a1.06 1.06 0 00-.292-.137c-.238-.08-.336-.183-.173-.183zm-3.132.043c.07 0 .127.019.127.042 0 .023-.057.043-.127.043s-.127-.02-.127-.043c0-.023.057-.042.127-.042zm6.339.05c.063.012.22.42.222.574.002.1-.208.06-.228-.042-.066-.325-.064-.545.006-.532zm-4.666.161c.089 0 .077.074-.02.126-.118.063-.138.054-.087-.041.025-.047.073-.085.107-.085zm-1.567.003c.075 0 .072.012-.034.105-.128.113-.199.133-.199.056 0-.069.133-.16.233-.16zm.943.085c.038.004.052.02.052.05 0 .035-.067.053-.19.053-.221 0-.251-.041-.06-.08a.787.787 0 01.198-.023zm13.89.038c.142 0 .274.275.238.497-.216 1.452.74 2.8 1.054 3.842.116.46.343.774.492 1.143.103.624-.46.975-.467 1.551-.128.502-.194.913-.186 1.366.037.406-.05.957-.151.957-.382-.35-.572-.924-.574-1.242-.004-.36-.12-.739-.103-1.005-.156-.92-.657 0-.763.209-.215.747-.085 1.462-.122 1.916.12.933.375 1.331.588 2.083.254.572.436 1.22.248 1.239-.263-.38-.35-.87-.531-1.256-.136-.196-.22-.478-.436-1.472-.124-.565-.206-.803-.338-.974-.492-1.11-.078-2.6-.492-3.553-.344-1.31-.704-1.262-1.202-1.882-.447-.329-1.062-.22-1.656-.244-.038-.211-.03-.15.07-.445.062-.161.193-.206.307-.245.026-.135-.073-.2-.304-.199-.454.076-.14.26-.56.211-.4-.235-.143-1.325.282-.695.459.163.96.176 1.392.103.106 0 .775-.224.87-.29 1.475-.425 1.741-.907 2.343-1.615zm26.626.014c.133.017.22.11.406.296.456.456.447.476-.22.51-.531.018-1.099.154-1.55.22-.821.12-1.109.132-1.141.046a1.825 1.825 0 01-.05-.246c-.036-.236-.011-.256.423-.348.513-.14.943-.21 1.448-.321.372-.115.551-.174.684-.157zm-39.622.071c.048 0 .09.04.104.097a.975.975 0 00.174.271 1.1 1.1 0 01.15.2c0 .072-.282-.037-.42-.162-.12-.109-.127-.406-.008-.406zm-.505.013c.057-.005.035.015-.054.094-.092.082-.165.105-.328.105-.37 0-.192-.111.299-.187l.083-.012zm2.245.2c.023 0 .042.017.042.04 0 .021-.019.05-.042.065-.023.015-.042-.003-.042-.04 0-.036.019-.066.042-.066zm35.22.003l.149.004-.148.065c-.264.104-.536.167-.804.244-1.51.392-3.2.858-4.572 1.107-.797.19-1.216.25-1.939.472-.623.104-.9.14-.974.295-.095.2-.197.19-.163-.018.033-.204.087-.24.46-.302 1.074-.23 2.202-.528 3.134-.688 1.382-.344 2.532-.631 3.905-.951.657-.2.785-.232.953-.228zM7.16 46.91c.034-.013-.023.068-.13.165-.075.07-.175.163-.222.209-.046.046-.208.125-.36.177a4.3 4.3 0 00-.432.172c-.27.136-.319.089-.135-.13.08-.095.146-.13.244-.13.23 0 .735-.217.97-.416a.301.301 0 01.065-.047zm-1.112.047c.012.013-.026.054-.085.093-.059.038-.108.094-.108.122 0 .03-.04.1-.087.158-.087.106-.086.105-.059-.035.024-.12.015-.144-.06-.163-.05-.013-.09-.04-.09-.061 0-.052.074-.047.107.006s.183.013.285-.077c.04-.036.084-.055.097-.043zm11.29.106c-.352-.007-.68.009-.83.058-.285.092-.346.166-.207.25.098.06.34.024.44-.066.07-.064.14-.068.64-.037.918.057 1.195.051 1.195-.022 0-.096-.651-.172-1.238-.183zm14.264.097c.007 0 .013.002.018.006.012.007.014.023.004.048l-.05.123c-.02.049.017.103.124.185.156.119.279.126.68.038.126-.028.127-.028.03.072-.124.13-.884.172-1.068.06a1.277 1.277 0 00-.18-.09c-.124-.046-.084-.13.138-.289a.882.882 0 01.278-.149c.01-.002.019-.004.026-.004zm-24.097.043c.058 0 .425.263.425.304 0 .076-.263-.007-.39-.122-.082-.073-.102-.182-.035-.182zm2.16.085c.024 0 .043.028.043.063s-.02.064-.042.064c-.024 0-.043-.029-.043-.064s.02-.063.043-.063zm22.349 0c.148 0 .256.037.257.088 0 .04-.236.046-.328.01-.097-.038-.055-.098.07-.098zm16.586.02a.174.174 0 01.082.005c.185.036.308.115.456.143.289.112.51.289.817.348.057 0 .097.064.11.099.027.068-.118.093-.158.027-.013-.02-.152-.078-.31-.13a8.472 8.472 0 01-.897-.357c-.116-.055-.153-.12-.1-.134zm-18.037.035c.017.017-.034.097-.113.178-.078.081-.172.147-.208.147-.04 0 .001-.066.113-.177.098-.098.191-.164.208-.148zm-23.92.18c.013 0 .017.006.017.017 0 .059-.35.256-.456.256-.05 0-.101.02-.115.042-.015.024-.055.043-.09.043-.107 0-.023-.078.187-.173.307-.139.42-.187.458-.185zm.43.028c.053.011.02.047-.12.13-.21.124-.25.137-.25.076 0-.062.288-.223.37-.206zm40.897.025c.414.284.389.499.078.562-.729.104-1.157.197-1.854.323-.058 0-.779-.385-.81-.441.044-.122.081-.067.25-.102.81-.165 1.66-.224 2.336-.342zm-20.748.051c.19 0 .19 0 .16.286-.02.19-.056.315-.11.373-.053.057-.08.149-.08.265 0 .325-.145.205-.246-.205-.037-.148-.036-.147-.308-.147-.265 0-.273-.003-.286-.117-.013-.12.161-.178.225-.074.053.085.135.038.293-.17.151-.198.172-.21.352-.21zm-19.619.01a.696.696 0 01.246.054c.152.052.233.122.416.361.28.369.254.428-.047.105a1.966 1.966 0 00-.426-.344c-.194-.1-.253-.166-.189-.175zm36.009.092c.048-.009.168.02.374.085.204.063.438.132.52.153.581.221 1.077.642 1.563.971.083.043.23.16.329.262.526.531.947 1.056 1.16 1.732.044.13.08.296.08.37 0 .164-.032.17-.176.025-.579-.308-1.269-.61-1.814-.802-.667-.306-.756-.595-1.316-1.107-.196-.155-.306-.378-.44-.544-.163-.163-.228-.338-.154-.412.098-.098.057-.46-.066-.589-.084-.087-.108-.135-.06-.144zm-13.113.031c.038-.013.023.026-.072.127-.214.225-1.006.848-1.183.93-.302.142-.358.1-.087-.064.079-.048.298-.206.487-.352.189-.145.358-.265.374-.265.017 0 .123-.086.236-.19.117-.108.208-.173.245-.186zm-.653.096c.048.049-.143.235-.242.237-.058.001-.201.049-.317.106-.242.12-.307.132-.237.048.06-.073.767-.42.796-.391zm-23.461.028c.056-.006.106.005.106.036 0 .02-.03.05-.067.064-.138.053-.245.031-.187-.038.028-.034.091-.056.148-.062zm1.175.04c.023-.01.085.018.2.09.164.1.212.154.212.236 0 .07.029.114.085.128.047.013.085.058.085.102 0 .1.009.103-.18-.064-.088-.077-.159-.17-.159-.209 0-.037-.057-.098-.127-.134-.07-.036-.127-.093-.127-.128 0-.01.003-.019.011-.022zm3.251.043c.045 0 .082.02.082.042 0 .024-.049.043-.108.043-.062 0-.097-.018-.082-.043.014-.023.063-.042.108-.042zm12.708.03c.391.03.438.069.387.32-.068 1.377.022 2.912.38 4.147.154.553.412 1.154.48 1.668h.001c.12.58.23 1.146.178 1.509-.071.504-.124.464-.124-.094-.037-.484-.12-1.053-.334-1.447-.125-.583-.42-1.076-.622-1.54-.155-.598-.277-.615-.558-1.28-.279-.093-.159.85.14 1.1.29.534.353 1.227.606 1.85.398.9.42 1.507.26 2.124a8.434 8.434 0 00-.37-1.335c-.139-.369-.35-.691-.438-1.028a11.384 11.384 0 00-.788-2.5c-.394-.613-.784-1.968-.46-2.471.257-.635.615-1.03 1.262-1.023zm2.256.012a.204.204 0 01.152.096.5.5 0 00.112.14.131.131 0 01.046.12c-.019.091-.418-.19-.418-.294 0-.05.05-.07.108-.062zm-19.034.008c.002.007-.017.023-.057.055-.1.078-.164.084-.14.011.009-.029.063-.058.12-.064a.29.29 0 01.077-.002zm21.868.038c.032-.002.062.035.071.113.011.096.04.12.154.138.14.02.141.02-.013.17a1.97 1.97 0 00-.279.365c-.068.12-.158.232-.198.249-.04.016-.25.04-.465.052-.392.022-.392.022-.392-.09 0-.125.105-.193.181-.117.07.07.26.06.432-.023.157-.075.179-.133.104-.273-.04-.075-.032-.082.075-.07.106.01.12-.003.132-.125.007-.076.03-.138.05-.138.02 0 .049-.057.064-.127.017-.08.052-.121.084-.124zm-22.27.053c.028-.004.05-.004.058.004.016.017-.007.058-.052.09-.089.066-.297.084-.26.024.027-.044.17-.104.254-.118zm4.683.029c.258 0 .345.109.115.144-.302.046-.54.054-.54.02 0-.053.287-.164.425-.164zm30.563.042c.023 0 .041.014.04.032-.001.092-.082.154-.082.063 0-.052.018-.095.042-.095zm-34.73.021c.028.008.01.038-.06.088-.117.082-.119.145-.005.145.061 0 .083.023.074.074-.01.055-.063.077-.204.086-.185.013-.188.011-.096-.055.12-.085.12-.123.004-.176-.086-.038-.08-.046.09-.114.101-.04.171-.056.198-.048zm23.465.117a.16.16 0 01.036.01c.14.059.37.104.529.105 1.337.108 2.104.196 3.467.277.402.036.857.08 1.233.107.097 0 .2.047.2.09 0 .062-.114.158-.17.09-.397-.03-.69-.078-1.012-.092-1.396-.05-2.885-.224-4.142-.417-.148-.013-.18-.032-.18-.103 0-.05.01-.07.04-.066zm10.597.074c.024 0 .02.028-.01.063-.029.035-.072.065-.095.065-.024 0-.02-.03.01-.065.03-.034.072-.063.095-.063zm-34.934.049a.4.4 0 01.078.001c.03.004.049.013.049.027 0 .022-.06.052-.133.067-.187.037-.216.033-.196-.027.011-.034.114-.062.202-.068zm1.77.036c.02 0 .072.038.114.085.067.075.068.085.007.085-.037 0-.088-.039-.113-.085-.025-.047-.029-.085-.009-.085zm18.843 0c.136 0 .148.013.286.307.117.253.066.254-.2.005-.243-.226-.266-.311-.086-.311zm12.408.012c.053.003.047.024-.03.065-.085.044-.607.113-.607.08 0-.011.143-.054.318-.095.156-.037.267-.053.32-.05zm-28.365.03c.096 0 .109.044.034.119-.074.074-.119.062-.119-.034 0-.056.029-.084.085-.084zm-4.995.043c.047 0 .085.007.085.016 0 .009-.038.026-.085.039-.046.012-.085.005-.085-.017 0-.021.039-.038.085-.038zm43.846.065c.014-.002.008.04-.003.125a4.999 4.999 0 01-.072.38 3.973 3.973 0 00-.07.509c-.029.26-.103.515-.138.74-.166 1.094-.316 1.87-.447 2.822-.13.995-.166 2.047-.3 2.86-.155 1.39-.455 2.691-.74 4.002a2.94 2.94 0 00-.083.368c0 .034-.042.091-.094.128a.376.376 0 01-.13.066c-.07 0 .05-.8.175-1.164.279-1.434.605-2.97.77-4.488.08-.753.155-1.263.24-1.982.194-.93.32-1.937.448-2.697.06-.379.113-.893.217-1.183-.021-.134-.004-.188.11-.345.069-.093.103-.139.117-.141zm-38.057.02c.09 0 .103.011.053.043-.083.054-.17.054-.17 0 0-.023.053-.043.117-.043zm37.382.01c.093-.002.093.047.093.242 0 .217-.012.26-.074.262-.571.033-1.14.091-1.704.181-.178.03-.316-.021-.473-.175-.219-.214-.207-.222.532-.328.317-.063.66-.133.949-.145.179.004.426-.007.548-.024.056-.008.097-.013.129-.014zm-6.609.035c.077 0 .071.07-.011.1a.434.434 0 01-.138.026c-.088-.002.058-.126.15-.126zm-1.883.011c.086.015.078.026-.07.092-.217.097-.471.14-.43.073.017-.027.069-.048.115-.048a.42.42 0 00.185-.067.33.33 0 01.2-.05zm-32.268.03c.023 0 .06.025.083.054.023.029.11.131.192.227.083.096.15.186.15.201 0 .015-.028.027-.063.027s-.064-.02-.064-.046c0-.025-.076-.121-.169-.213-.166-.165-.21-.25-.129-.25zm2.925 0c.045 0 .083.019.083.042 0 .024-.049.043-.109.043-.061 0-.097-.019-.082-.043.015-.023.063-.042.108-.042zm28.218 0c.06 0 .094.018.08.042-.015.024-.074.043-.133.043-.06 0-.094-.019-.08-.043.015-.023.074-.042.133-.042zm-13.897.006a.037.037 0 01.031.002c.004.19.072.362.108.506-.125.67-.119 1.038.02 1.217.191.669.427 1.414.371 2.112-.018.602-.213 1.514.178.918.317-.68.399-1.143.25-1.418-.065-.12-.137-.77-.147-1.333-.009-.454-.04-.589-.181-.778-.143-.191-.1-.863.057-.886.115-.016.357.516.357.786.06.25.126.503.17.75.092.5.172 1.06.16 1.463-.018.59.03.458-.604 1.67-.258.394-.364.638-.374 1.095-.005.396-.025.938-.044 1.206-.152.65-.31 1.247-.576 1.734-.285.411-.605.836-.653 1.255-.081.67-.19.709-.178.146.012-.685.212-1.275.514-1.526.433-.641.529-1.165.614-1.893.059-.695.021-1.282.078-1.993.228-1.084-.276-1.871-.31-2.906-.056-.55-.388-1.053-.197-1.605.102-.274.27-.494.356-.52zm12.687.047c.032.004.072.011.12.025.09.027.246.051.349.054.185.005.185.005.016.04-.256.053-.42.048-.51-.02-.092-.067-.072-.107.025-.099zm-30.844.04c.304 0 .418.089.718.323.264.208.671.502 1.022.74.296.201.337.262.34.51.026.424.074 1.028-.028 1.293-.144-.003-.439-.167-.546-.305-.783-.506-1.445-1.138-2.13-1.714-.723-.577-.756-.698-.21-.766.4-.05.651-.081.834-.081zm43.263.023c.041.022.674.298.785.348.11.05 3.75 1.6 3.75 1.62 0 .022-.1.138-.13.137-.096-.003-4.422-1.877-4.422-1.922 0-.005.005-.008.013-.01-.173-.018-.259-.1.004-.173zm-35.421.055c.148-.016.174.124.22.224.04.047-.011.063-.28.086-.427.05-.92.07-1.251.28-.027.104-.232.116-.27.016-.028-.074.05-.142.163-.143.159-.056.29-.166.416-.25 0-.087.677-.22 1.002-.213zm22.643.022c.023-.003.068.023.126.074.116.1.118.11.035.11-.1.003-.201-.096-.176-.171.003-.008.008-.012.015-.013zm-28.763.015c.048.018.164.18.164.24 0 .107-.083.06-.141-.08-.032-.075-.05-.147-.04-.158.004-.004.01-.003.017-.002zm1.305.01c.032-.01.048.006.037.038a.132.132 0 01-.074.074c-.032.01-.048-.005-.037-.038a.132.132 0 01.074-.074zm.9.013c.084.006.002.062-.248.165-.155.063-.35.172-.433.24-.16.132-.288.169-.229.066.05-.089.487-.407.584-.427.168-.033.277-.048.327-.044zm20.395.008c.061-.012.125.069.148.252.031.253-.134.519-.326.523-.085.002-.202.206-.202.352 0 .106-.076.192-.254.288-.178.095-1.74.076-1.969-.026a6.853 6.853 0 01-.486-.304c-.222-.147-.476-.288-.565-.312-.607-.165-.624-.314-.04-.35.249-.015.561-.05.694-.078.334-.069.566.027.608.252.028.15-.015.22-.137.221-.029 0-.052.03-.052.067 0 .056.044.062.285.04.33-.03.389-.002.43.195.044.22.173.226.173-.002 0-.173 0-.173.246-.173.274 0 .347.047.347.22 0 .178.066.144.177-.09.112-.234.431-.507.644-.55.12-.025.133-.043.145-.215.014-.191.073-.297.134-.31zm.623.014c.061 0 .037.291-.037.434-.036.071-.204.107-.204.043 0-.094.193-.477.241-.477zm-2.38.086c.34-.002.338.053-.002.153-.388.113-.357.106-.357.076 0-.07.25-.228.36-.229zm8.637.016c.198.003.36.018.36.036 0 .017-.162.032-.36.032-.198 0-.36-.016-.36-.036 0-.02.162-.034.36-.032zm-8.17.026c.034 0 .063.019.063.042 0 .023-.029.042-.064.042-.034 0-.063-.019-.063-.042 0-.023.029-.042.063-.042zm11.14 0c.092 0 .101.01.057.063a.187.187 0 01-.124.064.18.18 0 00-.11.04c-.061.06-.8.298-.923.298-.06 0-.12.02-.134.043-.015.023-.058.042-.096.042-.127 0 .004-.073.307-.17.163-.053.396-.14.516-.196.121-.055.249-.1.284-.1.035 0 .075-.019.09-.042.014-.023.074-.042.134-.042zm-30.358.084c.185 0 .245.215.082.29-.16.072-.2.062-.147-.036.159-.296-.362.108-.653.507-.127.174-.194.214-.194.116 0-.187.718-.877.912-.877zm29.428.005c.008.004.008.012 0 .026-.036.059-.199.1-.199.05a.04.04 0 01.04-.039.425.425 0 00.112-.028c.023-.01.04-.011.047-.009zm12.297.012c.081.005.393.092.841.24.756.248 1.71.68 1.71.749 0 .045-.478-.054-.725-.145-.493-.204-1.025-.375-1.5-.634a.684.684 0 00-.203-.127c-.138-.06-.172-.086-.123-.083zm-26.049.026c.112 0 .176.167.176.459 0 .36-.087.421-.164.115-.056-.221-.064-.574-.012-.574zm10.773.008c.008-.008.05-.002.134.008.093.012.314.033.49.047.318.026.563.104.331.105-.061 0-.166.008-.233.015-.243.03-.545-.018-.65-.104-.053-.042-.079-.063-.072-.07zm-7.463.117c.077 0 .18.008.306.029.14.023.158.04.158.148 0 .142-.017.145-.37.024-.321-.108-.325-.198-.094-.2zM8.88 49.41c.062 0 .15.123.15.21 0 .075-.077.05-.146-.05-.083-.117-.083-.16-.004-.16zm30.608.003l.169.004-.17.078c-.173.08-.49.148-.994.213-.339.044-.616.05-.783-.002a3.69 3.69 0 00-.281-.06c-.153-.027-.4-.183-.357-.226.012-.012.047-.004.076.019.248.19 1.38.197 2.028.012a1.26 1.26 0 01.312-.038zm-28.028.062c.035.01.02.062-.03.168-.066.139-.157.2-.157.106 0-.023-.038-.043-.085-.043-.147 0-.09-.11.093-.183.054-.021.096-.037.127-.044a.111.111 0 01.052-.004zm-1.372.083c.023-.014.042.003.042.04 0 .036-.019.066-.042.066a.04.04 0 01-.042-.04c0-.022.018-.051.042-.066zm31.043.021c.085 0 .116.015.09.042-.083.083-.344.11-.278.03.032-.04.117-.072.188-.072zm-11.754.01a.255.255 0 01.104.006c.073.015.15.027.17.027.02 0 .037.028.037.063s-.034.061-.074.058c-.184-.014-.265-.047-.265-.108 0-.026.007-.04.028-.047zm20.979.055c.017 0 .06.019.107.052.064.045.255.028.325.063l.254.129c.177.09.585.315.913.371.542.128 1.19.377 1.484.613.053.057.08.103.058.102-.047-.002-.774-.226-1.16-.357a86.468 86.468 0 00-.572-.19c-.703-.23-1.419-.621-1.419-.774 0-.005.003-.008.01-.008zm-10.728.026a.214.214 0 01.057.001c.022.004.036.013.036.028 0 .023-.03.052-.067.066-.11.043-.195.03-.177-.027.012-.035.087-.062.151-.068zm1.056.036c.084 0 .141.013.113.042-.045.044-.6.201-.887.25a.905.905 0 00-.224.063c-.03.018-.343.06-.697.093-.77.07-.877.073-.877.018 0-.055.114-.075.584-.103.217-.013.43-.043.474-.066a.854.854 0 01.295-.043c.199 0 .674-.105.95-.21a.862.862 0 01.269-.044zm-28.423.035c.166.041.23.127.425.092.098-.019.036.143-.094.603-.278 1.003-.589 2.074-1.017 2.969-.091.216-.14.287-.44.626-.434.614-.302 1.4-.413 2.145-.088.363-.212 1.138-.37 1.01-.16-.13.201-.659.247-1.528.022-.426.07-.992.105-1.26.073-.55.126-.784.406-1.778.133-.46.247-.965.45-1.37.172-.348.208-.598.347-.925.1-.22.174-.461.354-.584zm26.962.026c.02.003.032.01.032.023 0 .024-.06.044-.134.044-.154 0-.148-.019.018-.059a.247.247 0 01.084-.008zm-2.167.025c.06 0 .146.027.19.061.08.06.078.063-.025.064a.36.36 0 01-.19-.061c-.08-.06-.08-.063.025-.064zm5.197.083c.103 0 .103.003.029.085a.284.284 0 01-.183.085c-.103 0-.103-.002-.029-.085a.284.284 0 01.183-.085zm-31.442.002c.064.002.123.02.122.052-.002.09-.21.32-.21.232 0-.092-.185-.096-.339-.01-.162.092-.228.077-.128-.03.047-.05.086-.108.086-.127 0-.018.066-.034.146-.034.08 0 .157-.019.171-.042.02-.031.088-.044.152-.042zm27.127.047c.023 0 .044.003.059.009.028.01-.005.02-.075.019-.07 0-.094-.01-.052-.021a.254.254 0 01.068-.007zm-1.176.06c.026-.026.334.089.334.125 0 .012-.044.02-.098.02-.106 0-.277-.104-.236-.144zm4.113.061c.077.001.082.01.031.042-.082.053-.127.053-.127 0 0-.023.043-.042.096-.042zm-.301.041c.063.003.07.026.017.066a.417.417 0 01-.212.062c-.07 0-.216.027-.323.06a3.122 3.122 0 01-.487.087c-.16.016-.35.045-.42.064-.317.089-1.764.078-2.286-.019-.157-.029-.421-.23-.304-.233a.52.52 0 01.19.056c.403.202 1.973.199 3.035-.01l.437-.087c.17-.034.29-.05.353-.046zm-3.057.044c.022 0 .051.019.066.042.014.023-.004.042-.04.042-.036 0-.066-.019-.066-.042 0-.023.018-.042.04-.042zm4.17.006c.01.007-.025.03-.094.074-.151.096-.212.106-.3.05-.078-.049-.023-.075.227-.11.106-.013.159-.021.168-.014zm-31.19.084c.026-.007.016.038-.033.134-.026.05-.106.154-.178.23-.071.076-.169.137-.217.136-.076-.001-.079-.007-.02-.053.036-.028.155-.152.264-.275.096-.108.158-.166.184-.172zm40.008.063c.019-.002.05.015.098.044.415.309.029.37.34.673.718.118 1.345.778 2.054 1.035.02 0 .084.06.165.084l.611.182c.147.043.3.282.11.282-.118 0-1.049-.354-1.127-.405-.73-.282-1.518-.62-2.067-1.04-.231-.162-.216-.314-.216-.627 0-.162 0-.223.032-.227zm-39.407.016c.049 0 .045.017-.015.084-.08.087-.148.111-.148.051 0-.055.097-.135.163-.135zm29.377.09c.032 0 .045.011.029.036-.014.024-.077.042-.14.04-.102-.003-.105-.007-.03-.04a.397.397 0 01.141-.037zm-4.164.048c.015-.003.04 0 .076.01.18.096.384.142.54.165a15.322 15.322 0 001.323.045c.86-.001 1.04.036.38.08-.63.042-1.627.028-1.735-.024-.163-.056-.32-.098-.466-.15-.117-.058-.163-.117-.118-.126zm3.278.121c.023 0 .044.003.059.01v-.001c.028.011-.005.02-.075.019-.07 0-.094-.01-.052-.021a.253.253 0 01.068-.007zm-28.846.037c.068 0 .003.09-.12.166-.13.08-.239.113-.239.073 0-.02.33-.24.359-.24zm30.178.003c.14-.005.239.006.22.036-.012.02-.19.06-.394.087-.203.028-.456.067-.56.087a12.6 12.6 0 01-.53.082l-.656.091c-.436.063-1.02.084-1.122.041-.11-.046.051-.074.624-.108.227-.013.628-.061.89-.107s.552-.085.645-.086c.094 0 .284-.03.424-.063.14-.034.32-.055.46-.06zm-29.872.056c.013.012-.032.07-.099.128a.473.473 0 01-.164.107c-.023 0 .022-.058.1-.128.078-.071.151-.12.163-.107zm15.788.013c.35.148 1.772.635 2.483 1.199.526.31 1.094.642 1.562.946l.392.233c.129.076.873.455.842.486-.042.042-.644-.307-.835-.376-.76-.425-1.52-.786-2.285-1.33-.544-.31-1.207-.508-1.67-.784-.16-.04-.56-.273-.56-.327 0-.035.027-.05.071-.047zm16.443.183c.021 0 .04.019.04.042 0 .023-.03.042-.067.042-.036 0-.054-.019-.04-.042.015-.023.045-.042.067-.042zm-2.734.098c.063 0 .101.006.115.02.049.05.014.062-.432.158-.401.086-1.397.136-1.397.07 0-.024.08-.054.18-.065.216-.025.817-.101 1.274-.16.11-.015.197-.022.26-.023zm2.347.029c.048 0 .087.018.087.042 0 .023-.027.042-.06.042-.034 0-.073-.02-.088-.042-.014-.024.013-.042.061-.042zm-.4.047c.148 0 .13.011-.148.082-.372.094-.505.105-.435.034.059-.058.358-.118.584-.116zm-31.859.003c.003.007-.017.023-.057.054-.1.078-.164.085-.14.012.01-.03.064-.058.12-.065.05-.006.074-.004.077-.001zm-.525.034c.035 0 .064.038.064.085 0 .047-.029.084-.064.084s-.064-.037-.064-.084c0-.047.029-.085.064-.085zm26.887.057c.286-.003.82.06.82.118 0 .043-.125.038-.36-.008a2.63 2.63 0 00-.415-.037c-.153-.002-.236-.019-.22-.045.011-.019.08-.027.175-.028zm4.59.028c.172 0 .253.058.142.1-.15.059-.413.03-.356-.037.03-.036.122-.063.214-.063zm-6.81.124c.1-.003.21-.003.319 0 .145.005.293.016.425.035.2.028.353.102.303.146-.1.087-1.415.02-1.512-.077-.056-.056.166-.095.466-.104zm7.367.084c.022 0 .033.014.033.04 0 .024-.043.042-.095.042-.077-.001-.083-.008-.032-.042.041-.026.073-.04.094-.04zm-31.38.06c.107.008.015.108-.242.207a.989.989 0 01-.275.068c-.151-.002.107-.192.341-.251a.593.593 0 01.175-.025zm30.7.07c.026.003.03.014.013.031-.056.06-.737.095-.993.051-.159-.027-.122-.034.216-.039.224-.003.5-.018.614-.033a.722.722 0 01.15-.01zm-14.039.05c.046-.004.158.034.338.114.763.21 1.298.612 1.96 1.062.601.314 1.159.564 1.711.828.258.135.475.288.723.42a.975.975 0 01.32.233c.414.474.822.985.938 1.426 0 .041.047.17.104.287.057.116.105.268.106.338.195.965.41 1.774.27 2.762.005.387-.012.71-.037 1.016-.02.246-.045.35-.084.35-.015-.606.005-1.313.005-1.844-.016-.873-.172-1.845-.45-2.58-.188-.66-.624-1.233-1-1.685-.02-.033-.122-.103-.227-.155-.52-.326-1.842-.9-2.61-1.328-.601-.37-1.176-.717-1.729-.962-.219-.092-.36-.195-.36-.262 0-.011.008-.018.022-.02zm6.624.061l.413.037c.227.02.675.036.995.035l.582-.003v.373c0 .24-.016.373-.046.373s-.041-.093-.032-.264c.013-.243.007-.266-.075-.278-.102-.014-.143.115-.143.441 0 .13-.018.186-.06.186-.078 0-.114-.232-.071-.456.042-.22.016-.231-.483-.213l-.339.013-.012.333c-.01.258.002.35.054.407.053.058.065.152.055.428l-.012.353-.106-.2c-.175-.33-.296-.26-.298.174 0 .132-.02.316-.045.41l-.066.26c-.05.205.6.38.702.19.093-.175.12-.086.113.371-.01.504-.044.594-.231.6a3.55 3.55 0 00-.734.166c-.104 0-.415.16-.415.213 0 .11-.16.032-.185-.09a3.307 3.307 0 00-.217-.513c-.262-.525-.279-.496.445-.725.44-.14.506-.253.507-.88 0-.446 0-.453-.148-.666-.145-.212-.148-.224-.148-.645zm18.873.096c.233 0 1.158.353 1.532.585l.147.092-.147-.002a1.237 1.237 0 01-.397-.124 8.537 8.537 0 00-.687-.277c-.434-.155-.63-.274-.448-.274zm-18.486.045a.133.133 0 00-.063.01c-.083.032-.101.611-.025.755.071.132.183.08.212-.101.064-.393.012-.652-.124-.664zm16.422.004c.72.891 1.092 1.58 1.718 2.423.094.117.058.225.117.308.04.105-.004.12-.057.019-.096-.234-.277-.375-.398-.554a20.886 20.886 0 00-.304-.439c-.256-.428-1.203-1.544-1.076-1.757zm-40.293.047v.001c.01 0 .02.003.025.008.011.011-.014.06-.056.106-.089.098-.233.113-.233.026 0-.052.19-.145.264-.14zm-3.197.036c.31.15.927.543.944 1.01-.833.098-1.631.072-2.425.104-.3.062-2.116.037-2.222-.031-.081-.053-.023-.922.067-.993 1.18-.023 2.427-.026 3.636-.09zm29.85.385c.033.007.048.144.048.411-.06.37.05.93-.026 1.349-.025.092-.1.124-.157.067.006-.591-.042-1.089.06-1.7.031-.089.057-.131.076-.127zm6.376.151c.033.006.052.219.049.595-.005.515-.014.583-.079.595-.068.013-.075-.907-.009-1.124.014-.046.028-.067.039-.066zm-33.332.15c.034.011.026.04-.022.09-.078.077-.151.094-.151.034 0-.057.118-.142.173-.124zm30.51.041c.042-.014.052.045.042.248.036.597.085 1.32.073 1.794-.011.42-.02 1.02-.017 1.336.003.679.025.647-.492.716a9.76 9.76 0 00-.55.086c-.342.073-1.522.101-1.573.038-.025-.033-.056-.215-.069-.406-.026-.4-.223-.79-.475-.938-.127-.075-.137-.1-.158-.36-.018-.223-.048-.312-.155-.457-.243-.331-.293-.323 1.794-.286 1.574.027 1.612.023 1.601-.155-.015-.606-.06-.94-.089-1.332.008-.171.032-.272.068-.284zm-4.919.26a.157.157 0 01.07.01c.052.017.2.042.328.056.232.026.232.025.232.173 0 .238-.249.217-.435-.037-.053-.072-.125-.132-.159-.132s-.062-.02-.062-.045c0-.014.01-.022.026-.024zm-.46.077c.01.009-.007.029-.043.068-.122.135-.07.222.136.222.056 0 .07.025.057.1-.015.076.013.119.122.189.169.108.145.114-.112.026-.291-.099-.366.024-.19.312.085.14.085.14.497.111.564-.04.628-.116.212-.254-.266-.089-.152-.172.17-.124.228.033.245.078.16.417-.117.47.012 1.342.213 1.434.17.077.125.16-.088.16-.302 0-.329-.075-.294-.79.036-.71.04-.702-.412-.683-.343.013-.395.07-.294.323.103.262 0 .771-.204 1.013-.101.12-.221.231-.267.245-.045.015-.102.082-.125.15a.34.34 0 01-.124.167c-.234.125.306.548.7.548.037 0 .067.031.067.069 0 .055-.028.063-.138.04a11.304 11.304 0 00-.434-.071 11.893 11.893 0 01-.52-.09c-.275-.057-.316-.025-.258.2.088.337.114.598.09.898-.039.512-.013.53.723.513.6-.014.6-.014.613.092.035.3.413.532.791.484.653-.082.868-.17.868-.353 0-.162-.074-.216-.299-.216-.28 0-.59-.047-.59-.09 0-.02.066-.036.146-.036.159 0 .225-.06.157-.141a.813.813 0 01-.079-.261c-.029-.174-.052-.213-.14-.233-.088-.021-.093-.03-.03-.054.05-.02.073-.074.073-.177 0-.272.221-.187.268.104.115.704.134.762.244.762.127 0 .196-.202.23-.672.025-.363.048-.466.132-.59.11-.163.104-.211.002-.28-.094-.059-.474.071-.626.214-.108.101-.116.102-.418.052-.378-.062-.329-.19.057-.147.463.052.482-.132.043-.411-.416-.265-.756-.324-.803-.138-.02.08-.006.138.046.196.102.112.043.16-.099.08-.178-.1-.173-.253.018-.42.196-.171.54-.16.905.029.359.185.737.024.51-.218-.101-.108-.1-.108.056-.108.237 0 .407.091.647.347.271.288.289.444.254 2.214a142.02 142.02 0 00-.026 1.747c-.001.56-.001.56-.102.56-.275 0-.287-.513-.039-1.632.043-.191-.348-.227-.897-.081-.438.116-.897.113-2.155-.02-.373-.038-.379-.037-.46.066-.11.141-.107.156-.156-.515-.06-.835-.158-1.445-.303-1.9a1.718 1.718 0 01-.08-.351c0-.177.378-.445.7-.498.803-.13.841-.168.859-.868.014-.535.012-.545-.106-.723-.2-.303-.181-.986.028-1.006a.341.341 0 01.117 0zm15.044.041c.02-.004.047-.001.082.002.13.013.15.035.24.268.155.397.08 2.14-.115 2.708a1.557 1.557 0 00-.085.368c0 .14-.083.159-.16.036-.066-.107-.065-.228.006-.466.076-.252.132-1.735.075-1.99a5.392 5.392 0 01-.073-.564c-.022-.28-.028-.35.03-.362zm-40.348.016c.023-.014.042.008.04.05-.007.16-.076.258-.08.111-.001-.074.016-.147.04-.161zm39.764.021c.034 0-.001.322-.043.391-.035.261-.071.65-.065.961-.002.494.05 1.307.094 1.46.02.07.048.218.063.33.027.2.027.2-.295.2h-.323L49.31 56c.065-.405.093-.78.14-1.175.024-.151.067-.442.098-.645.06-.418.14-.851.304-1.215zm-27.053.068c.068-.02.137.201.086.52.136.86-.196 1.28-.19 1.994.078.132.05.797.05 1.006-.035.176-.029.493-.145.607-.092.148-.59-.246-1.04-.69-.358-.346-.932-.782-.945-1.234.012-.122-.247-.306-.273-.49-.02-.447-.004-.83.163-.823.108.243.11.542.192.817.148.787.592 1.302 1.15 1.812.157.147.412.188.487.203.222-.14.187-.237.143-.513-.136-.885.058-1.79.226-2.662-.007-.371.044-.531.096-.547zm-15.941.063c.816-.002 1.474.027 1.487.097.015.075-.012.078-.486.06a7.942 7.942 0 00-.861.015c-.555.052-3.303.082-3.303.035 0-.117 1.803-.203 3.163-.207zm43.283.087c.104-.02.184 1.872.103 2.432-.105.725-.255.232-.254-.832 0-.984.057-1.582.15-1.6zm-41.789.46c.017.387.298.724-.158.725-1.506.02-2.934.089-4.53.048-.076-.027-.073-.65.003-.754.052-.072.145-.077 1.323-.072 1.262.06 2.461.044 3.362.054zm36.534.114c3.41.059 3.325.052 3.316.287-.093 1.125-.31 2.34-.54 3.385-.16.732-.282 1.37-.406 2.048 0 .224-.087.392-.237.454-.229.096-.538.064-.59-.06-.017-.04-.038-.395-.046-.79-.029-1.385-.2-1.638-1.54-2.28-.864-.414-.878-.44-.886-1.63-.003-.438-.003-.439.17-.635.178-.203.2-.336.104-.625-.03-.089.274-.16.655-.154zm-2.025.057c.428-.017.966.045.966.14 0 .032-.242.046-.762.046-.788 0-.948-.039-.57-.14.093-.025.224-.04.366-.046zm-9.67.164c.426 0 .504.047.275.163-.358.183-.603.156-.603-.066 0-.094.013-.098.328-.097zm18.667.047c.229.01.296.085.447.333.05.082.16.235.247.34.849 1.258 1.639 2.606 2.354 3.879.607.826.577 1.758-.187 1.781-.102.114-1.582.102-2.197-.192-.417-.543-.366-.872-.382-1.426-.018-.635-.011-.894.03-1.037.03-.105.053-.247.048-.317-.008-.115.014-.138.213-.233.222-.106.222-.106.235-.347.017-.33-.06-.38-.594-.388-.38-.006-.392-.003-.389.09.005.126-.103.125-.448-.011a1.67 1.67 0 00-.348-.106c-.13 0-.135-.12-.018-.48.181-.565.205-.698.174-.982-.029-.274.004-.726.061-.818.02-.032.197-.061.464-.078a2.95 2.95 0 01.29-.007zm-9.659.169c.048.003.127.022.249.06.263.08.858.078 1.189 0 .325-.078.402-.072.402-.002 0 .04-.083.085-.223.123-.619.17-1.682.079-1.682-.144 0-.028.017-.041.065-.037zm-8.213.171a.966.966 0 00-.332.094c-.208.087-.201.193.023.413.175.17.185.173.4.148.455-.054.544-.169.266-.344a.597.597 0 01-.213-.218c-.023-.062-.068-.093-.144-.093zm7.936.121c.023 0 .042.018.042.04-.026.272-.008.543 0 .735.013.34.036.664.043 1.002 0 .198-.014.254-.064.254s-.063-.056-.063-.254c.054-.368.019-.593.02-.772-.031-.296-.02-.705-.02-.939 0-.036.019-.066.042-.066zm-5.177.05c.323-.03.604.245.605.595 0 .201 0 .202-.158.202a.555.555 0 01-.573-.555c-.01-.228-.01-.228.126-.241zm-.796.042a.093.093 0 01.036 0c.047.01.074.054.074.12s-.027.11-.074.119c-.058.01-.074-.015-.074-.12 0-.077.008-.111.038-.119zm-30.708.046c.9.118 2.403-.106 3.173.1 0 .467-.027.507-.41.541-.352.033-3.605.054-4.024.025-.384-.024-.417-.054-.401-.359.014-.27-.027-.263 1.662-.308zm37.866.032c.117 0 .212.019.212.042 0 .023-.095.042-.212.042-.116 0-.211-.019-.211-.042 0-.023.095-.042.211-.042zm.269.342c.041.002.097.04.17.116.106.11.112.137.086.36-.051.435-.355.297-.355-.161 0-.215.03-.318.099-.315zm-.931.037c.061 0 .114.267.109.546-.004.271-.058.336-.116.143-.072-.24-.067-.689.007-.689zm-34.406.438c.22.005.271.02.271.046 0 .12-.119.13-1.693.158a63.98 63.98 0 00-1.82.047c-.304.026-1.169-.022-1.214-.067-.117-.118.14-.163.875-.151.407.006 1.44-.002 2.296-.019a40.424 40.424 0 011.285-.014zm.313.87c0 .435-.006.44-.704.476-1.41.067-2.429.092-3.676.048-.45-.017-.444-.011-.445-.458-.001-.544-.23-.503 3.079-.552.629 0 1.75-.193 1.746.486zm34.163-.334c.023 0 .042.048.042.106 0 .058-.019.106-.042.106-.023 0-.043-.048-.043-.106 0-.058.02-.106.043-.106zm-9.6.266c.021-.012.067.075.114.225.078.42.218.76.27 1.162.154.785.177 1.625.1 2.422-.026.238-.052.328-.096.328-.074 0-.076-.118-.009-.794.057-.576-.025-1.451-.215-2.296-.033-.342-.11-.665-.174-1 0-.028.004-.043.01-.047zm4.819.072a.076.076 0 00-.036.02c-.105.105-.183 1.21-.097 1.372.065.121.207.119.235-.005.038-.16.106-.845.106-1.057 0-.174-.12-.348-.208-.33zm12.407.005c.027-.001.051.029.075.09.02.053.076.132.126.177.049.044.088.096.089.115 0 .057-.983-.044-1.047-.107-.06-.06.057-.09.333-.081.275.008.297.002.341-.095.03-.065.057-.098.083-.099zm-1.167.25c.043.01.058.044.044.101-.035.137.024.172.397.238.333.058.85.067 1.842.03.593-.022.592-.022.656-.152.096-.197.497-.18.459.02-.027.14-.365.224-1.085.27-1.05.067-2.414-.006-2.58-.137-.1-.078-.065-.283.055-.329.098-.037.17-.05.212-.04zm-41.024.41v.001c.34 0 .342.027.352.134.008.079-.002.158-.02.176-.044.04-.944.076-1.358.054-1.033-.1-2.003.11-3.06-.01-.22-.03-.295-.069-.295-.15 0-.108.089-.118 1.106-.127 1.158.004 2.2-.063 3.275-.077zm37.37.412a3.269 3.269 0 00-.434.048c-.573.08-.576.081-.47.297.045.091.102.218.126.28.069.182.27.26.694.268.204.004.384.021.4.037.049.049.19.009.238-.067.057-.091-.07-.246-.202-.246-.215 0-.356-.222-.215-.339.082-.067.079-.097-.01-.207-.038-.045-.056-.068-.127-.07zm3.643.248h.001c.072.024.136 1.878.068 1.96-.033.039-.133.06-.281.06-.231 0-.231 0-.204-.138.055-.278.2-.991.256-1.259.03-.151.07-.357.084-.457.017-.11.047-.176.076-.166zm-42.125.125c.14-.002.328.006.581.015.936.034.891.014.89.398a14.58 14.58 0 00-.029 1.366c-.197.006-.752-.026-.993-.031-.916-.027-1.555-.025-3.826-.024-.024-.276.037-.68.03-1.38-.011-.281-.079-.333.449-.339.944-.002 1.933.018 2.898-.005zm11.378.117c-.051 0-.16.453-.126.603.09.462.239.96.132 1.408-.095.374-.1.435-.05.59.048.141.061.15.233.15.205 0 .262-.075.363-.477-.142-.599-.388-1.49-.552-2.274zm23.632.128c.179.001.286.05.286.131 0 .107-.215.102-.311.003-.094-.104-.088-.135.025-.134zm-4.118.056a.405.405 0 00-.099.026c-.137.052-.183.149-.111.235.115.139.338.048.338-.137 0-.092-.043-.133-.128-.124zm2.367.409c.065 0 .216.229.177.268-.029.028-.045.32-.045.799 0 .731-.052 1-.103.53-.028-.262-.053-1.597-.03-1.597zm1.744.085c.174 0 .173 0 .144.37-.034.42-.082.525-.118.258-.056-.129-.101-.297-.14-.391-.062-.236-.086-.207.114-.237zm9.414.322c-.195.008-.393.046-.61.08-.148-.133-.23-.016-.198.286.207.574.23.686.797 1.133h.001c.095.07.197.126.226.126.191-.287.194-.215.38-.37a5.844 5.844 0 01-.059-.63c-.017-.32-.048-.536-.082-.578a1.312 1.312 0 00-.261-.045c-.065-.005-.13-.003-.194-.002zm-16.996.017c.081.053.198 1.02.152 1.329-.028.186-.035.194-.172.194-.079 0-.155-.019-.17-.042-.039-.064.12-1.426.174-1.48.005-.004.01-.002.016-.001zm2.813.092c.132.02.12.948-.015 1.213-.22.433-.27.076-.123-.895.045-.297.06-.33.138-.318zm12.234.029c.029-.012.06.112.087.373.019.189.006.285-.053.414-.11.236-.138.144-.108-.352.017-.278.044-.424.074-.435z"/></svg>